<?xml version="1.0"?>
<svg xmlns="http://www.w3.org/2000/svg" xmlns:xlink="http://www.w3.org/1999/xlink" version="1.1" id="Capa_1" x="0px" y="0px" width="512px" height="512px" viewBox="0 0 47.694 47.694" style="enable-background:new 0 0 47.694 47.694;" xml:space="preserve"><g><g>
	<g>
		<polygon points="38.977,26.479 38.217,26.5 38.186,26.089 38.309,26.141 38.607,26.11 38.576,25.731 37.756,25.741 37.53,25.444     37.542,25.288 36.484,24.334 36.227,24.54 37.735,26.387 37.95,26.459 37.95,26.561 37.663,26.561 37.735,26.788 39.592,26.87       " data-original="#000000" class="active-path" data-old_color="#000000" fill="#7768E5"/>
		<polygon points="40.166,25.514 40.293,25.43 40.293,24.417 40.166,24.364 40.105,24.048 39.92,24.048 39.801,24.368     39.659,24.495 38.585,25.077 38.585,25.653 38.943,26.125 39.848,26.125 39.963,25.833 40.166,25.648   " data-original="#000000" class="active-path" data-old_color="#000000" fill="#7768E5"/>
		<polygon points="40.963,25.43 40.42,25.641 40.428,25.763 40.293,25.763 40.293,26.512 40.57,26.512 40.529,26.034 40.745,26.112     40.745,26.45 40.971,26.43   " data-original="#000000" class="active-path" data-old_color="#000000" fill="#7768E5"/>
		<polygon points="45.383,29.368 44.83,28.895 44.789,27.993 44.424,27.368 44.096,27.351 43.963,28.485 43.335,28.438     43.16,28.333 43.139,27.883 43.471,27.952 43.75,27.678 43.155,27.321 42.454,27.321 41.951,28.034 41.746,28.034 41.746,27.808     41.145,27.854 40.189,28.941 39.684,28.948 39.12,29.337 39.078,31.019 38.74,31.347 38.74,31.645 40.383,31.081 41.713,31.028     42.205,32.112 43.717,32.163 45.174,30.794 45.532,29.975   " data-original="#000000" class="active-path" data-old_color="#000000" fill="#7768E5"/>
		<polygon points="42.403,32.946 42.938,33.003 43.369,32.765 43.377,32.44 42.906,32.389   " data-original="#000000" class="active-path" data-old_color="#000000" fill="#7768E5"/>
		<polygon points="47.542,31.467 47.319,31.511 47.312,31.009 46.904,31.034 46.852,31.819 46.493,32.064 45.826,32.157     44.76,32.917 44.577,33.065 44.577,33.319 45.137,33.233 46.49,32.403 46.873,32.151 47.282,31.97 47.694,31.737   " data-original="#000000" class="active-path" data-old_color="#000000" fill="#7768E5"/>
		<polygon points="43.348,25.864 43.003,25.874 43.029,25.515 42.701,25.321 42.234,25.788 42.547,26.172 43.223,26.269     43.604,26.469 43.614,26.655 43.367,26.655 43.377,27.034 44.198,26.982 44.496,26.665 44.814,26.633 44.814,27.218     45.368,27.218 45.368,26.982 45.092,26.982 45.039,26.269 43.717,25.669   " data-original="#000000" class="active-path" data-old_color="#000000" fill="#7768E5"/>
		<polygon points="33.497,24.161 33.626,24.509 34.094,24.334 34.145,23.853 33.768,23.78   " data-original="#000000" class="active-path" data-old_color="#000000" fill="#7768E5"/>
		<polygon points="28.02,28.224 27.383,28.141 27.383,28.634 27.609,28.901 27.434,29.167 27.178,29.465 27.178,30.008     27.527,30.347 27.846,29.836 28.471,28.921 28.768,27.485 28.389,27.485   " data-original="#000000" class="active-path" data-old_color="#000000" fill="#7768E5"/>
		<polygon points="41.098,26.708 40.889,26.708 40.889,26.819 41.051,26.87   " data-original="#000000" class="active-path" data-old_color="#000000" fill="#7768E5"/>
		<rect x="39.92" y="26.87" width="0.247" height="0.137" data-original="#000000" class="active-path" data-old_color="#000000" fill="#7768E5"/>
		<polygon points="40.52,27.006 40.674,27.006 40.674,26.887 40.785,26.87 40.785,26.752 40.539,26.752 40.439,26.87 40.293,27.006     40.293,27.125 40.52,27.102   " data-original="#000000" class="active-path" data-old_color="#000000" fill="#7768E5"/>
		<polygon points="41.151,27.114 41.396,27.114 41.396,26.987 41.57,27.006 41.547,26.788 41.266,26.831 41.242,26.972     40.928,27.006 40.912,27.006 40.912,27.222 41.151,27.222   " data-original="#000000" class="active-path" data-old_color="#000000" fill="#7768E5"/>
		<path d="M3.232,16.41l0.051-0.323L2.95,16.036c0,0.02,0.025,0.375,0.051,0.375C3.027,16.41,3.232,16.41,3.232,16.41z" data-original="#000000" class="active-path" data-old_color="#000000" fill="#7768E5"/>
		<polygon points="19.986,16.102 20.012,16.302 19.714,16.364 19.673,16.789 20.032,16.789 20.509,16.743 20.755,16.451     20.493,16.348 20.35,16.184 20.135,15.835 20.032,15.343 19.627,15.425 19.514,15.598 19.514,15.794 19.708,15.928   " data-original="#000000" class="active-path" data-old_color="#000000" fill="#7768E5"/>
		<polygon points="19.642,16.266 19.663,15.999 19.426,15.897 19.094,15.973 18.847,16.368 18.847,16.625 19.134,16.625   " data-original="#000000" class="active-path" data-old_color="#000000" fill="#7768E5"/>
		<path d="M36.674,24.063l1.461,1.4l0.078-0.246l-1.186-1.693l0.123-0.493l0.626,0.709l0.349,0.037l0.459-0.306l-0.076-0.461    l-0.759-0.61l-0.03-0.554l0.217-0.292l0.384,0.123l-0.031,0.262l0.22,0.338l0.195-0.139l-0.107-0.4l1.078-0.385l0.471-0.395    l-0.071-0.713l-0.938-0.984l-0.016-0.8h0.416l1.292,0.985l0.364-0.098l-0.241-0.318l-0.692-0.42l0.041-0.625l0.82,0.001    l0.066-0.775L40.873,16.8l0.186-0.2l0.399,0.4l0.128-0.169l-0.513-0.585l-1.276-0.154l-0.17-0.338l0.369-0.523l0.292,0.215    l0.877,0.077l1.108-0.739l0.185,0.231L42.211,15.4v0.385l1.016,0.831l0.324-0.169l-0.123-0.554l-0.724-0.677l0.954-0.062v-0.277    l0.462-0.092l-0.354-0.244l0.016-0.188l0.97,0.157l0.185-0.157l-1.307-0.554l-4.771-0.246l-0.446-0.226l-0.708-0.105l-0.533-0.018    l-0.482,0.488l-0.203-0.016l-0.643-0.477h-1.893l-0.878-0.523l-1.759,0.111l-1.334,0.597l0.011,0.693L29.578,14.2l-0.092-0.693    l-0.153-0.241l-0.462-0.113l-0.107,0.416l0.139,0.338L27.26,13.8l-0.783,0.364l-0.119-0.343l-0.195,0.051l-0.143,0.379    l-0.411,0.321l-1.001-0.028l-0.045-0.221l1.046-0.046l0.215-0.185l-1.263-0.585l-1.54,0.046l-0.861,0.441l-0.323,0.577    l-0.569,0.223l-0.24,0.261l0.055,0.304l0.293,0.041l0.178,0.442l0.506-0.204l0.084,0.592h-0.153l-0.417-0.062l-0.461,0.077    l-0.446,0.631l-0.639,0.1l-0.092,0.546l0.27,0.064l-0.077,0.351l-0.635-0.127l-0.582,0.127l-0.123,0.324l0.101,0.679l0.342,0.16    l0.572-0.003l0.387-0.035l0.119-0.308l0.604-0.786l0.397,0.082l0.392-0.354l0.073,0.277l0.964,0.65l-0.118,0.158l-0.435-0.023    l0.167,0.237l0.267,0.059l0.313-0.131l-0.006-0.377l0.139-0.07l-0.112-0.119l-0.643-0.358l-0.169-0.477h0.535l0.17,0.169    l0.461,0.396l0.02,0.479l0.477,0.508l0.177-0.696l0.331-0.18l0.062,0.569l0.323,0.354l0.975-0.016l0.287,0.216v0.508l-0.354,0.323    h-0.985l-0.601-0.447l-0.63,0.062v0.385H23.19l-0.215-0.154l-1.093-0.277v-0.708l-1.385,0.108l-0.43,0.231h-0.55l-0.27-0.027    l-0.668,0.371v0.698l-1.365,0.985l0.113,0.42h0.277l-0.072,0.4l-0.195,0.071l-0.01,1.047l1.179,1.344h0.514l0.031-0.082h0.923    l0.266-0.246h0.524l0.287,0.287l0.779,0.082l-0.103,1.037l0.867,1.528l-0.457,0.872l0.031,0.411l0.36,0.358v0.986l0.471,0.635    v0.82h1.396l1.047-1.077l0.328-0.585l0.42-0.093v-0.492l0.277-0.329l0.584-0.8l-0.123-1.22l-0.256-0.453l1.151-1.1l1.269-1.814    l-0.246-0.113l-1.317,0.277l-0.339-0.169l-1.385-2.609l0.097-0.113l1.373,1.667l0.036,0.518l0.318,0.318l0.646-0.042l1.35-0.977    l0.424-0.277l-0.009-0.338l-0.45-0.059c0,0-1.58-0.745-1.58-0.777c0-0.033,0.01-0.639,0.01-0.639h0.349l0.052,0.441l0.732,0.421    l0.837,0.041l1.815,0.297l0.426,0.268v0.416l-0.055,0.565l0.932,1.53l0.3,0.069l0.3-0.435l0.166-1.239l0.311-0.667l0.5-0.187    l0.883,0.084l1.107,0.984V24.063L36.674,24.063z M23.907,14.322l-0.611,0.374v0.246l0.347,0.162l0.022,0.331l-0.488,0.727    l-0.847-0.008l-0.053-0.177l0.53-0.269l0.004-1.004l0.9-0.627h0.196V14.322z M25.789,18.6l-0.798-0.033L24.752,18.6v-0.545    l0.18-0.201l0.192-0.06l0.425-0.049l0.092-0.145l0.174,0.086l0.023,0.497l0.465,0.19l0.041,0.227H25.789z M28.855,18.99    l-0.139,0.133l-0.322-0.026L28.332,19l-0.508-0.036L27.86,18.8l0.268-0.231v-0.194L27.614,18l-0.021-0.477l0.104-0.236    l0.415-0.036l0.354,0.148l0.016,0.247l-0.502-0.028l-0.026,0.229l0.631,0.421v0.308l0.272,0.2v0.214H28.855z" data-original="#000000" class="active-path" data-old_color="#000000" fill="#7768E5"/>
		<path d="M12.735,17.587h-0.354v0.182h0.084c0,0,0.005,0.039,0.012,0.09l0.217-0.018l0.135-0.084l0.036-0.17l0.175-0.015    l0.069-0.143l-0.161-0.033l-0.141,0.003L12.735,17.587z" data-original="#000000" class="active-path" data-old_color="#000000" fill="#7768E5"/>
		<polygon points="11.882,17.909 12.139,17.887 12.166,17.708 12.012,17.587 11.896,17.73   " data-original="#000000" class="active-path" data-old_color="#000000" fill="#7768E5"/>
		<path d="M15.256,25.823l-1.087-0.011l-0.862-0.327l-0.041-0.615l-0.288-0.504l-0.779-0.011l-0.452-0.707l-0.4-0.195l-0.021,0.215    l-0.729,0.043L10.33,23.34l-0.759-0.154l-0.624,0.723l-0.985-0.166l-0.072-1.11l-0.718-0.123l0.288-0.544l-0.083-0.313    l-0.944,0.631l-0.594-0.072l-0.213-0.464l0.13-0.479l0.328-0.604l0.754-0.382h1.457l-0.004,0.444l0.523,0.244l-0.042-0.759    l0.377-0.379l0.762-0.5l0.052-0.352l0.759-0.79l0.807-0.447l-0.071-0.059l0.547-0.515l0.2,0.053l0.092,0.115l0.208-0.23    l0.051-0.022l-0.228-0.032l-0.23-0.077v-0.223l0.123-0.1h0.27l0.124,0.054l0.107,0.215l0.131-0.02v-0.019l0.038,0.013l0.378-0.059    l0.054-0.185l0.215,0.054v0.2l-0.2,0.138l0,0l0.029,0.22l0.686,0.211c0,0,0.001,0.003,0.002,0.008l0.157-0.014l0.011-0.297    l-0.546-0.245l-0.031-0.143l0.451-0.154l0.02-0.431l-0.471-0.287l-0.031-0.728l-0.646,0.318h-0.236l0.062-0.554l-0.88-0.208    l-0.364,0.275v0.839l-0.654,0.208l-0.262,0.546l-0.284,0.046v-0.7l-0.615-0.085l-0.308-0.2l-0.124-0.454l1.101-0.644l0.539-0.164    l0.054,0.362l0.3-0.016l0.023-0.182l0.314-0.045l0.005-0.063l-0.135-0.056l-0.031-0.192l0.386-0.032l0.233-0.243l0.013-0.018    l0.003,0.001l0.071-0.073l0.811-0.103l0.358,0.305l-0.94,0.5l1.196,0.282l0.155-0.4h0.523l0.185-0.349l-0.37-0.092v-0.441    l-1.159-0.513l-0.8,0.092l-0.452,0.236l0.031,0.575l-0.472-0.072l-0.073-0.318l0.452-0.411L10.804,13.1l-0.236,0.072l-0.103,0.277    l0.308,0.052l-0.062,0.308l-0.523,0.031l-0.082,0.205l-0.759,0.02c0,0-0.021-0.431-0.051-0.431c-0.03,0,0.595-0.01,0.595-0.01    l0.452-0.441l-0.247-0.123l-0.328,0.318l-0.545-0.031l-0.328-0.452H8.197l-0.729,0.544h0.667l0.061,0.195l-0.174,0.164    l0.739,0.021l0.113,0.267l-0.832-0.031L8.001,13.85l-0.523-0.113l-0.277-0.154l-1.231,0.01l-0.38,0.369l-0.256-0.021l-0.287-0.164    l-0.852-0.256h-1.56l-0.901,0.616L1.129,14.23l-0.277,0.215l0.431,0.064v0.172H0.36L0,14.937l0.461,0.39l1.262,0.01l0.174-0.185    h1.057l0.379,0.339l-0.02,0.523l0.318,0.297L3.364,16.5l0.062,0.693l-0.954,1.159v1.087l0.513,0.247v0.977l0.492,0.839l0.4,0.062    l0.051-0.288l-0.472-0.729l-0.092-0.708h0.277l0.117,0.729l0.683,0.995l-0.177,0.322l0.434,0.663l1.077,0.267v-0.174l0.431,0.062    l-0.041,0.308l0.338,0.062l0.523,0.143l0.739,0.842l0.943,0.071l0.092,0.77l-0.646,0.452L8.123,26.04l-0.092,0.42l0.934,1.17    l0.072,0.4c0,0,0.339,0.092,0.38,0.092s0.759,0.543,0.759,0.543v2.113l0.256,0.072l-0.175,0.975l0.431,0.574l-0.08,0.967l0.569,1    l0.731,0.639l0.735,0.014l0.072-0.236l-0.54-0.455l0.031-0.226l0.097-0.276l0.021-0.283l-0.365-0.01l-0.184-0.23l0.303-0.292    l0.041-0.222l-0.338-0.097l0.02-0.204l0.482-0.074l0.734-0.353l0.246-0.452l0.77-0.984l-0.175-0.771l0.236-0.409l0.708,0.021    l0.477-0.377l0.154-1.485l0.528-0.672l0.092-0.432l-0.482-0.153L15.256,25.823z M9.68,18.239l-0.177,0.177H9.11l0.062-0.269    l0.185-0.016l0.039-0.092L9.68,18V18.239z M9.773,17.754l-0.185,0.119l-0.23,0.042c0,0,0-0.369,0-0.408h0.416L9.773,17.754    L9.773,17.754z M10.122,17.469l0.189,0.118l-0.151,0.125l-0.149-0.125L10.122,17.469z M9.873,17.777h0.031l0.469,0.139v0.239H9.98    L9.873,18V17.777z M9.564,17.115l0.254,0.231l-0.254,0.062V17.115z M8.487,17.154l0.354-0.146h0.485v0.146h0.107v0.254H8.695    l-0.277-0.077L8.487,17.154z M8.418,17.815l0.285-0.308h0.408l-0.523,0.731l-0.216-0.116L8.418,17.815z M8.041,16.076l0.292,0.069    l-0.101,0.393l-0.315,0.1l-0.2-0.408L8.041,16.076z M6.579,14.214v-0.023h0.27l0.023-0.092h0.441v0.192L7.187,14.46H6.579V14.214z     M7.01,14.814c0,0,0.27-0.046,0.292-0.046s0,0.269,0,0.269l-0.608,0.039l-0.116-0.139L7.01,14.814z" data-original="#000000" class="active-path" data-old_color="#000000" fill="#7768E5"/>
	</g>
</g></g> </svg>
