<?xml version="1.0"?>
<svg xmlns="http://www.w3.org/2000/svg" height="512px" viewBox="0 0 64 64" width="512px" class=""><g><path d="m15 19h2v7h-2z" fill="#32b1cc" data-original="#32B1CC" class=""/><path d="m34 7h12v19h-12z" fill="#cfdfe8" data-original="#CFDFE8" class=""/><path d="m22 3h12v23h-12z" fill="#aabece" data-original="#AABECE" class=""/><g fill="#394d5c"><path d="m25 6h2v2h-2z" data-original="#394D5C" class=""/><path d="m29 6h2v2h-2z" data-original="#394D5C" class=""/><path d="m25 10h2v2h-2z" data-original="#394D5C" class=""/><path d="m29 10h2v2h-2z" data-original="#394D5C" class=""/><path d="m25 14h2v2h-2z" data-original="#394D5C" class=""/><path d="m29 14h2v2h-2z" data-original="#394D5C" class=""/><path d="m37 10h2v2h-2z" data-original="#394D5C" class=""/><path d="m41 10h2v2h-2z" data-original="#394D5C" class=""/><path d="m37 14h2v2h-2z" data-original="#394D5C" class=""/><path d="m41 14h2v2h-2z" data-original="#394D5C" class=""/><path d="m37 18h2v2h-2z" data-original="#394D5C" class=""/><path d="m41 18h2v2h-2z" data-original="#394D5C" class=""/><path d="m25 18h2v2h-2z" data-original="#394D5C" class=""/><path d="m29 18h2v2h-2z" data-original="#394D5C" class=""/></g><path d="m46 15h8v11h-8z" fill="#aabece" data-original="#AABECE" class=""/><path d="m49 18h2v2h-2z" fill="#394d5c" data-original="#394D5C" class=""/><path d="m49 10h2v5h-2z" fill="#32b1cc" data-original="#32B1CC" class=""/><circle cx="16" cy="18" fill="#fcf05a" r="2" data-original="#FCF05A" class="" style="fill:#F8CA4D" data-old_color="#fcf05a"/><path d="m3 43h58v18h-58z" fill="#87cee9" data-original="#87CEE9" class="" style="fill:#7768E5" data-old_color="#87cee9"/><path d="m20 55h-8l-2-4h12z" fill="#ffd782" data-original="#FFD782" class="" style="fill:#F8CA4D" data-old_color="#ffd782"/><path d="m8 54h16v2h-16z" fill="#2d75bb" data-original="#2D75BB" class=""/><path d="m12 47h6v4h-6z" fill="#e97424" data-original="#E97424" class="active-path" style="fill:#D9176C" data-old_color="#e97424"/><path d="m43 57h8l2-4h-12z" fill="#ffd782" data-original="#FFD782" class="" style="fill:#F8CA4D" data-old_color="#ffd782"/><path d="m39 56h16v2h-16z" fill="#2d75bb" data-original="#2D75BB" class=""/><path d="m45 49h6v4h-6z" fill="#e97424" transform="matrix(-1 0 0 -1 96 102)" data-original="#E97424" class="active-path" style="fill:#D9176C" data-old_color="#e97424"/><path d="m25 47h10v2h-10z" fill="#2d75bb" data-original="#2D75BB" class=""/><path d="m30 51h8v2h-8z" fill="#2d75bb" data-original="#2D75BB" class=""/><path d="m28 56h6v2h-6z" fill="#2d75bb" data-original="#2D75BB" class=""/><path d="m54 47h4v2h-4z" fill="#2d75bb" data-original="#2D75BB" class=""/><path d="m3 43v-17l5-2 8 1 6-1 7 1 9-2h7l6 1h5l5-1v20z" fill="#eb8cb3" data-original="#EB8CB3" class=""/><path d="m11 28h-4a1 1 0 0 0 -1 1v7h2v-2h3a1 1 0 0 0 1-1v-4a1 1 0 0 0 -1-1zm-1 4h-2v-2h2z" fill="#d9176c" data-original="#D9176C" class="" style="fill:#353688" data-old_color="#d9176c"/><path d="m19.447 29.105-2-1a1 1 0 0 0 -.894 0l-2 1a1 1 0 0 0 -.553.895v6h2v-2h2v2h2v-6a1 1 0 0 0 -.553-.895zm-3.447 2.895v-1.382l1-.5 1 .5v1.382z" fill="#d9176c" data-original="#D9176C" class="" style="fill:#353688" data-old_color="#d9176c"/><path d="m43.447 29.105-2-1a1 1 0 0 0 -.894 0l-2 1a1 1 0 0 0 -.553.895v6h2v-2h2v2h2v-6a1 1 0 0 0 -.553-.895zm-3.447 2.895v-1.382l1-.5 1 .5v1.382z" fill="#d9176c" data-original="#D9176C" class="" style="fill:#353688" data-old_color="#d9176c"/><path d="m57.447 29.105-2-1a1 1 0 0 0 -.894 0l-2 1a1 1 0 0 0 -.553.895v6h2v-2h2v2h2v-6a1 1 0 0 0 -.553-.895zm-3.447 2.895v-1.382l1-.5 1 .5v1.382z" fill="#d9176c" data-original="#D9176C" class="" style="fill:#353688" data-old_color="#d9176c"/><path d="m22 30h2v6h2v-6h2v-2h-6z" fill="#d9176c" data-original="#D9176C" class="" style="fill:#353688" data-old_color="#d9176c"/><path d="m30 30h2v6h2v-6h2v-2h-6z" fill="#d9176c" data-original="#D9176C" class="" style="fill:#353688" data-old_color="#d9176c"/><path d="m49.105 27.553-1.105 2.211-1.105-2.211-1.79.894 1.895 3.789v3.764h2v-3.764l1.895-3.789z" fill="#d9176c" data-original="#D9176C" class="" style="fill:#353688" data-old_color="#d9176c"/><path d="m28 37h2v2h-2z" fill="#2d75bb" data-original="#2D75BB" class=""/><path d="m10 36h2v2h-2z" fill="#2d75bb" data-original="#2D75BB" class=""/><path d="m49 38h2v2h-2z" fill="#2d75bb" data-original="#2D75BB" class=""/></g> </svg>
