<svg aria-hidden="true" style="position: absolute; width: 0; height: 0; overflow: hidden;" version="1.1" xmlns="http://www.w3.org/2000/svg" xmlns:xlink="http://www.w3.org/1999/xlink">
<defs>
<symbol id="icon-1" viewBox="0 0 32 32">
<title>1</title>
<path d="M23.039 16.64h-1.279c-0.354 0-0.64-0.286-0.64-0.64s0.286-0.64 0.64-0.64h1.279c0.354 0 0.64 0.287 0.64 0.64s-0.286 0.64-0.64 0.64zM20.525 12.38c-0.25 0.25-0.656 0.25-0.905 0s-0.25-0.655 0-0.905l0.905-0.905c0.249-0.25 0.655-0.25 0.905 0s0.249 0.655 0 0.905l-0.905 0.905zM16 19.839c-2.121 0-3.84-1.719-3.84-3.839s1.719-3.84 3.84-3.84c2.121 0 3.839 1.719 3.839 3.84s-1.719 3.839-3.839 3.839zM16 13.44c-1.414 0-2.56 1.146-2.56 2.56s1.147 2.56 2.56 2.56 2.559-1.146 2.559-2.56c0-1.414-1.146-2.56-2.559-2.56zM16 10.881c-0.354 0-0.64-0.287-0.64-0.64v-1.28c0-0.353 0.286-0.64 0.64-0.64s0.64 0.287 0.64 0.64v1.28c0 0.353-0.287 0.64-0.64 0.64zM11.475 12.38l-0.905-0.905c-0.25-0.25-0.25-0.655 0-0.905s0.655-0.25 0.905 0l0.905 0.905c0.25 0.25 0.25 0.655 0 0.905s-0.655 0.25-0.905 0zM10.881 16c0 0.353-0.287 0.64-0.64 0.64h-1.28c-0.353 0-0.64-0.286-0.64-0.64s0.287-0.64 0.64-0.64h1.28c0.354 0 0.64 0.287 0.64 0.64zM11.475 19.62c0.25-0.25 0.655-0.25 0.905 0s0.25 0.655 0 0.905l-0.905 0.905c-0.25 0.25-0.655 0.25-0.905 0s-0.25-0.655 0-0.905l0.905-0.905zM16 21.119c0.353 0 0.64 0.286 0.64 0.64v1.28c0 0.353-0.287 0.64-0.64 0.64s-0.64-0.287-0.64-0.64v-1.28c0-0.353 0.286-0.64 0.64-0.64zM20.525 19.62l0.905 0.905c0.249 0.25 0.249 0.655 0 0.905s-0.656 0.25-0.905 0l-0.905-0.905c-0.25-0.25-0.25-0.655 0-0.905s0.655-0.25 0.905 0z"></path>
</symbol>
<symbol id="icon-2" viewBox="0 0 32 32">
<title>2</title>
<path d="M25.581 13.965h-1.28c-0.353 0-0.64-0.286-0.64-0.64s0.287-0.639 0.64-0.639h1.28c0.353 0 0.64 0.286 0.64 0.639s-0.287 0.64-0.64 0.64zM23.067 9.705c-0.25 0.25-0.655 0.25-0.905 0s-0.25-0.655 0-0.905l0.905-0.905c0.25-0.25 0.655-0.25 0.905 0s0.25 0.655 0 0.905l-0.905 0.905zM22.124 14.7v0c0.56 0.668 0.898 1.526 0.898 2.466 0 2.12-1.719 3.839-3.84 3.839-0.888 0-4.096 0-5.119 0-2.827 0-5.119-2.292-5.119-5.119s2.292-5.119 5.119-5.119c0.503 0 0.989 0.074 1.447 0.209 0.702-0.905 1.798-1.489 3.032-1.489 2.121 0 3.84 1.719 3.84 3.839-0 0.485-0.094 0.948-0.258 1.374zM10.223 15.885c0 2.121 1.719 3.839 3.839 3.839 1.157 0 4.153 0 5.119 0 1.414 0 2.56-1.146 2.56-2.559s-1.146-2.56-2.56-2.56c-0.512 0-0.987 0.154-1.387 0.413-0.394-1.701-1.912-2.972-3.733-2.972-2.121 0-3.839 1.719-3.839 3.839zM18.542 10.766c-0.708 0-1.349 0.287-1.812 0.752 0.749 0.46 1.371 1.105 1.801 1.873 0.212-0.036 0.428-0.066 0.651-0.066 0.68 0 1.318 0.179 1.872 0.489v0c0.031-0.158 0.048-0.321 0.048-0.489 0-1.413-1.146-2.559-2.56-2.559zM18.542 8.206c-0.353 0-0.64-0.286-0.64-0.64v-1.28c0-0.354 0.287-0.64 0.64-0.64s0.64 0.286 0.64 0.64v1.28c0 0.354-0.286 0.64-0.64 0.64zM14.017 9.705l-0.905-0.905c-0.25-0.25-0.25-0.655 0-0.905s0.655-0.25 0.905 0l0.905 0.905c0.25 0.25 0.25 0.655 0 0.905s-0.655 0.25-0.905 0z"></path>
</symbol>
<symbol id="icon-3" viewBox="0 0 32 32">
<title>3</title>
<path d="M25.581 13.965h-1.28c-0.353 0-0.64-0.286-0.64-0.64s0.287-0.639 0.64-0.639h1.28c0.353 0 0.64 0.286 0.64 0.639s-0.287 0.64-0.64 0.64zM23.067 9.705c-0.25 0.25-0.655 0.25-0.905 0s-0.25-0.655 0-0.905l0.905-0.905c0.25-0.25 0.655-0.25 0.905 0s0.25 0.655 0 0.905l-0.905 0.905zM22.124 14.7v0c0.56 0.668 0.898 1.526 0.898 2.466 0 2.12-1.719 3.839-3.84 3.839-0.888 0-4.096 0-5.119 0-2.827 0-5.119-2.292-5.119-5.119s2.292-5.119 5.119-5.119c0.503 0 0.989 0.074 1.447 0.209 0.702-0.905 1.798-1.489 3.032-1.489 2.121 0 3.84 1.719 3.84 3.839-0 0.485-0.094 0.948-0.258 1.374zM10.223 15.885c0 2.121 1.719 3.839 3.839 3.839 1.157 0 4.153 0 5.119 0 1.414 0 2.56-1.146 2.56-2.559s-1.146-2.56-2.56-2.56c-0.512 0-0.987 0.154-1.387 0.413-0.394-1.701-1.912-2.972-3.733-2.972-2.121 0-3.839 1.719-3.839 3.839zM18.542 10.766c-0.708 0-1.349 0.287-1.812 0.752 0.749 0.46 1.371 1.105 1.801 1.873 0.212-0.036 0.428-0.066 0.651-0.066 0.68 0 1.318 0.179 1.872 0.489v0c0.031-0.158 0.048-0.321 0.048-0.489 0-1.413-1.146-2.559-2.56-2.559zM18.542 8.206c-0.353 0-0.64-0.286-0.64-0.64v-1.28c0-0.354 0.287-0.64 0.64-0.64s0.64 0.286 0.64 0.64v1.28c0 0.354-0.286 0.64-0.64 0.64zM14.017 9.705l-0.905-0.905c-0.25-0.25-0.25-0.655 0-0.905s0.655-0.25 0.905 0l0.905 0.905c0.25 0.25 0.25 0.655 0 0.905s-0.655 0.25-0.905 0z"></path>
</symbol>
<symbol id="icon-4" viewBox="0 0 32 32">
<title>4</title>
<path d="M25.581 13.965h-1.28c-0.353 0-0.64-0.286-0.64-0.64s0.287-0.639 0.64-0.639h1.28c0.353 0 0.64 0.286 0.64 0.639s-0.287 0.64-0.64 0.64zM23.067 9.705c-0.25 0.25-0.655 0.25-0.905 0s-0.25-0.655 0-0.905l0.905-0.905c0.25-0.25 0.655-0.25 0.905 0s0.25 0.655 0 0.905l-0.905 0.905zM22.124 14.7v0c0.56 0.668 0.898 1.526 0.898 2.466 0 2.12-1.719 3.839-3.84 3.839-0.888 0-4.096 0-5.119 0-2.827 0-5.119-2.292-5.119-5.119s2.292-5.119 5.119-5.119c0.503 0 0.989 0.074 1.447 0.209 0.702-0.905 1.798-1.489 3.032-1.489 2.121 0 3.84 1.719 3.84 3.839-0 0.485-0.094 0.948-0.258 1.374zM10.223 15.885c0 2.121 1.719 3.839 3.839 3.839 1.157 0 4.153 0 5.119 0 1.414 0 2.56-1.146 2.56-2.559s-1.146-2.56-2.56-2.56c-0.512 0-0.987 0.154-1.387 0.413-0.394-1.701-1.912-2.972-3.733-2.972-2.121 0-3.839 1.719-3.839 3.839zM18.542 10.766c-0.708 0-1.349 0.287-1.812 0.752 0.749 0.46 1.371 1.105 1.801 1.873 0.212-0.036 0.428-0.066 0.651-0.066 0.68 0 1.318 0.179 1.872 0.489v0c0.031-0.158 0.048-0.321 0.048-0.489 0-1.413-1.146-2.559-2.56-2.559zM18.542 8.206c-0.353 0-0.64-0.286-0.64-0.64v-1.28c0-0.354 0.287-0.64 0.64-0.64s0.64 0.286 0.64 0.64v1.28c0 0.354-0.286 0.64-0.64 0.64zM14.017 9.705l-0.905-0.905c-0.25-0.25-0.25-0.655 0-0.905s0.655-0.25 0.905 0l0.905 0.905c0.25 0.25 0.25 0.655 0 0.905s-0.655 0.25-0.905 0z"></path>
</symbol>
<symbol id="icon-5" viewBox="0 0 32 32">
<title>5</title>
<path d="M25.599 13.965h-1.28c-0.353 0-0.64-0.286-0.64-0.64s0.287-0.64 0.64-0.64h1.28c0.353 0 0.64 0.287 0.64 0.64s-0.286 0.64-0.64 0.64zM23.085 9.706c-0.25 0.25-0.655 0.25-0.905 0s-0.25-0.655 0-0.905l0.905-0.905c0.25-0.25 0.655-0.25 0.905 0s0.25 0.655 0 0.905l-0.905 0.905zM22.141 14.7v0c0.292 0.348 0.522 0.749 0.676 1.186h-1.404c-0.443-0.764-1.268-1.28-2.214-1.28-0.512 0-0.987 0.154-1.387 0.413-0.394-1.701-1.911-2.973-3.732-2.973-2.121 0-3.84 1.719-3.84 3.84h-1.28c0-2.828 2.292-5.12 5.119-5.12 0.503 0 0.988 0.074 1.447 0.21 0.702-0.905 1.798-1.489 3.032-1.489 2.121 0 3.84 1.719 3.84 3.839 0 0.485-0.093 0.947-0.258 1.374zM18.56 10.766c-0.708 0-1.349 0.287-1.812 0.752 0.749 0.459 1.371 1.105 1.801 1.873 0.212-0.036 0.428-0.066 0.651-0.066 0.68 0 1.318 0.179 1.872 0.489v0c0.031-0.158 0.048-0.321 0.048-0.489 0-1.414-1.146-2.56-2.56-2.56zM18.56 8.206c-0.353 0-0.64-0.286-0.64-0.64v-1.28c0-0.353 0.287-0.64 0.64-0.64s0.64 0.287 0.64 0.64v1.28c0 0.354-0.286 0.64-0.64 0.64zM14.035 9.706l-0.905-0.905c-0.25-0.25-0.25-0.655 0-0.905s0.655-0.25 0.905 0l0.905 0.905c0.25 0.25 0.25 0.655 0 0.905s-0.655 0.25-0.905 0zM9.601 17.165h12.798c0.353 0 0.64 0.287 0.64 0.64s-0.287 0.64-0.64 0.64h-12.798c-0.353 0-0.64-0.286-0.64-0.64s0.286-0.64 0.64-0.64zM9.601 19.725h12.798c0.353 0 0.64 0.286 0.64 0.64s-0.287 0.64-0.64 0.64h-12.798c-0.353 0-0.64-0.287-0.64-0.64s0.286-0.64 0.64-0.64zM9.601 22.284h12.798c0.353 0 0.64 0.287 0.64 0.64s-0.287 0.64-0.64 0.64h-12.798c-0.353 0-0.64-0.286-0.64-0.64s0.286-0.64 0.64-0.64z"></path>
</symbol>
<symbol id="icon-6" viewBox="0 0 32 32">
<title>6</title>
<path d="M14.062 21.004c-2.827 0-5.119-2.292-5.119-5.119s2.292-5.119 5.119-5.119c1.921 0 3.593 1.060 4.469 2.625 0.212-0.036 0.428-0.066 0.651-0.066 2.121 0 3.84 1.719 3.84 3.84s-1.719 3.839-3.84 3.839c-0.888 0-4.096 0-5.119 0zM19.182 19.724c1.414 0 2.56-1.146 2.56-2.559s-1.146-2.56-2.56-2.56c-0.512 0-0.986 0.154-1.387 0.413-0.394-1.701-1.912-2.973-3.733-2.973-2.12 0-3.839 1.719-3.839 3.84s1.719 3.839 3.839 3.839c1.157 0 4.153 0 5.119 0z"></path>
</symbol>
<symbol id="icon-7" viewBox="0 0 32 32">
<title>7</title>
<path d="M14.062 21.004c-2.827 0-5.119-2.292-5.119-5.119s2.292-5.119 5.119-5.119c1.921 0 3.593 1.060 4.469 2.625 0.212-0.036 0.428-0.066 0.651-0.066 2.121 0 3.84 1.719 3.84 3.84s-1.719 3.839-3.84 3.839c-0.888 0-4.096 0-5.119 0zM19.182 19.724c1.414 0 2.56-1.146 2.56-2.559s-1.146-2.56-2.56-2.56c-0.512 0-0.986 0.154-1.387 0.413-0.394-1.701-1.912-2.973-3.733-2.973-2.12 0-3.839 1.719-3.839 3.84s1.719 3.839 3.839 3.839c1.157 0 4.153 0 5.119 0z"></path>
</symbol>
<symbol id="icon-8" viewBox="0 0 32 32">
<title>8</title>
<path d="M14.062 21.004c-2.827 0-5.119-2.292-5.119-5.119s2.292-5.119 5.119-5.119c1.921 0 3.593 1.060 4.469 2.625 0.212-0.036 0.428-0.066 0.651-0.066 2.121 0 3.84 1.719 3.84 3.84s-1.719 3.839-3.84 3.839c-0.888 0-4.096 0-5.119 0zM19.182 19.724c1.414 0 2.56-1.146 2.56-2.559s-1.146-2.56-2.56-2.56c-0.512 0-0.986 0.154-1.387 0.413-0.394-1.701-1.912-2.973-3.733-2.973-2.12 0-3.839 1.719-3.839 3.84s1.719 3.839 3.839 3.839c1.157 0 4.153 0 5.119 0z"></path>
</symbol>
<symbol id="icon-11" viewBox="0 0 32 32">
<title>11</title>
<path d="M22.399 21.005h-12.798c-0.353 0-0.64-0.287-0.64-0.64s0.287-0.64 0.64-0.64h12.798c0.353 0 0.64 0.286 0.64 0.64s-0.286 0.64-0.64 0.64zM22.399 18.445h-12.798c-0.353 0-0.64-0.286-0.64-0.64s0.287-0.64 0.64-0.64h12.798c0.353 0 0.64 0.287 0.64 0.64s-0.286 0.64-0.64 0.64zM19.2 14.606c-0.512 0-0.987 0.154-1.387 0.413-0.394-1.701-1.912-2.973-3.733-2.973-2.12 0-3.839 1.719-3.839 3.84h-1.28c0-2.827 2.292-5.12 5.119-5.12 1.921 0 3.593 1.060 4.469 2.625 0.212-0.036 0.428-0.066 0.651-0.066 1.671 0 3.089 1.069 3.616 2.56h-1.402c-0.443-0.765-1.268-1.28-2.214-1.28zM9.601 22.284h12.798c0.353 0 0.64 0.287 0.64 0.64s-0.287 0.64-0.64 0.64h-12.798c-0.353 0-0.64-0.286-0.64-0.64s0.286-0.64 0.64-0.64z"></path>
</symbol>
<symbol id="icon-12" viewBox="0 0 32 32">
<title>12</title>
<path d="M19.2 21.005c-0.085 0-0.196 0-0.32 0 0-0.439-0.102-0.877-0.302-1.28 0.249 0 0.464 0 0.622 0 1.414 0 2.56-1.146 2.56-2.559s-1.146-2.56-2.56-2.56c-0.512 0-0.987 0.154-1.387 0.413-0.394-1.701-1.911-2.972-3.732-2.972-2.121 0-3.839 1.719-3.839 3.839 0 1.905 1.388 3.481 3.207 3.783-0.204 0.389-0.31 0.816-0.324 1.244-2.37-0.448-4.164-2.526-4.164-5.027 0-2.827 2.292-5.119 5.119-5.119 1.921 0 3.593 1.060 4.469 2.625 0.212-0.036 0.428-0.066 0.651-0.066 2.121 0 3.839 1.719 3.839 3.84s-1.718 3.839-3.839 3.839zM16 18.742l1.131 1.131c0.624 0.625 0.624 1.638 0 2.262s-1.638 0.625-2.262 0c-0.625-0.625-0.625-1.637 0-2.262l1.131-1.131z"></path>
</symbol>
<symbol id="icon-13" viewBox="0 0 32 32">
<title>13</title>
<path d="M25.581 13.965h-1.28c-0.353 0-0.64-0.286-0.64-0.64s0.287-0.64 0.64-0.64h1.28c0.353 0 0.64 0.287 0.64 0.64s-0.287 0.64-0.64 0.64zM23.067 9.706c-0.25 0.25-0.655 0.25-0.905 0s-0.25-0.655 0-0.905l0.905-0.905c0.25-0.25 0.655-0.25 0.905 0s0.25 0.655 0 0.905l-0.905 0.905zM22.124 14.7v0c0.56 0.667 0.898 1.526 0.898 2.465 0 1.671-1.069 3.089-2.559 3.616v-1.402c0.764-0.443 1.28-1.268 1.28-2.214 0-1.413-1.146-2.56-2.56-2.56-0.512 0-0.987 0.154-1.387 0.413-0.394-1.701-1.911-2.973-3.732-2.973-2.121 0-3.839 1.719-3.839 3.839 0 1.136 0.496 2.153 1.28 2.856v1.573c-1.529-0.886-2.56-2.535-2.56-4.429 0-2.827 2.292-5.119 5.119-5.119 0.503 0 0.989 0.074 1.447 0.209 0.702-0.905 1.797-1.489 3.032-1.489 2.121 0 3.839 1.719 3.839 3.839-0 0.485-0.093 0.947-0.258 1.374zM18.542 10.766c-0.708 0-1.349 0.287-1.812 0.752 0.749 0.459 1.371 1.105 1.801 1.873 0.212-0.036 0.428-0.066 0.651-0.066 0.68 0 1.318 0.179 1.872 0.489v0c0.031-0.158 0.048-0.321 0.048-0.489 0-1.414-1.146-2.56-2.56-2.56zM18.542 8.206c-0.353 0-0.64-0.286-0.64-0.64v-1.28c0-0.353 0.287-0.64 0.64-0.64s0.64 0.286 0.64 0.64v1.28c0 0.354-0.286 0.64-0.64 0.64zM14.017 9.706l-0.905-0.905c-0.249-0.25-0.249-0.655 0-0.905s0.656-0.25 0.905 0l0.905 0.905c0.25 0.25 0.25 0.655 0 0.905s-0.655 0.25-0.905 0zM13.422 17.165c0.354 0 0.64 0.287 0.64 0.64v5.119c0 0.354-0.286 0.64-0.64 0.64s-0.64-0.286-0.64-0.64v-5.119c0-0.353 0.287-0.64 0.64-0.64zM15.982 18.445c0.353 0 0.64 0.286 0.64 0.64v5.119c0 0.353-0.287 0.64-0.64 0.64s-0.64-0.287-0.64-0.64v-5.119c0-0.354 0.286-0.64 0.64-0.64zM18.542 17.165c0.354 0 0.64 0.287 0.64 0.64v5.119c0 0.354-0.286 0.64-0.64 0.64s-0.64-0.286-0.64-0.64v-5.119c0-0.353 0.287-0.64 0.64-0.64z"></path>
</symbol>
<symbol id="icon-14" viewBox="0 0 32 32">
<title>14</title>
<path d="M25.599 13.965h-1.28c-0.353 0-0.64-0.286-0.64-0.64s0.287-0.64 0.64-0.64h1.28c0.353 0 0.64 0.287 0.64 0.64s-0.286 0.64-0.64 0.64zM23.085 9.706c-0.25 0.25-0.655 0.25-0.905 0s-0.25-0.655 0-0.905l0.905-0.905c0.25-0.25 0.655-0.25 0.905 0s0.25 0.655 0 0.905l-0.905 0.905zM22.141 14.7v0c0.559 0.667 0.898 1.526 0.898 2.465v0c0 2.121-1.719 3.839-3.839 3.839-0.085 0-0.196 0-0.32 0 0-0.439-0.102-0.877-0.302-1.279 0.249 0 0.464 0 0.622 0 1.414 0 2.56-1.146 2.56-2.56s-1.146-2.559-2.56-2.559c-0.512 0-0.987 0.154-1.387 0.413-0.394-1.702-1.911-2.973-3.732-2.973-2.121 0-3.839 1.719-3.839 3.839 0 0.45 0.081 0.879 0.223 1.28h-0.002c0.46 1.297 1.596 2.273 2.986 2.504-0.204 0.389-0.31 0.815-0.324 1.244-1.951-0.369-3.508-1.843-3.999-3.748h0.004c-0.106-0.409-0.168-0.837-0.168-1.28 0-2.827 2.292-5.119 5.119-5.119 0.503 0 0.988 0.074 1.447 0.209 0.702-0.905 1.797-1.489 3.032-1.489 2.121 0 3.839 1.719 3.839 3.839 0 0.485-0.093 0.947-0.258 1.375zM18.56 10.766c-0.708 0-1.349 0.287-1.812 0.752 0.749 0.459 1.371 1.105 1.801 1.873 0.212-0.036 0.428-0.066 0.651-0.066 0.68 0 1.318 0.179 1.872 0.489v0c0.031-0.158 0.048-0.321 0.048-0.489 0-1.414-1.146-2.56-2.56-2.56zM18.56 8.206c-0.353 0-0.64-0.286-0.64-0.64v-1.28c0-0.353 0.287-0.64 0.64-0.64s0.64 0.286 0.64 0.64v1.28c0 0.354-0.286 0.64-0.64 0.64zM14.035 9.706l-0.905-0.905c-0.25-0.25-0.25-0.655 0-0.905s0.655-0.25 0.905 0l0.905 0.905c0.25 0.25 0.25 0.655 0 0.905s-0.655 0.25-0.905 0zM16 18.742l1.131 1.131c0.625 0.624 0.625 1.637 0 2.262s-1.638 0.625-2.262 0c-0.625-0.624-0.625-1.637 0-2.262l1.131-1.131z"></path>
</symbol>
<symbol id="icon-15" viewBox="0 0 32 32">
<title>15</title>
<path d="M19.2 21.005c-0.090 0-0.208 0-0.34 0l1.147-1.412c1.018-0.338 1.753-1.297 1.753-2.428 0-1.414-1.146-2.559-2.56-2.559-0.512 0-0.987 0.154-1.387 0.413-0.394-1.701-1.912-2.973-3.733-2.973-2.12 0-3.839 1.719-3.839 3.84 0 1.743 1.162 3.212 2.753 3.681l-0.432 1.209c-2.086-0.647-3.602-2.591-3.602-4.89 0-2.827 2.292-5.12 5.119-5.12 1.921 0 3.593 1.060 4.469 2.625 0.212-0.036 0.428-0.066 0.651-0.066 2.121 0 3.84 1.719 3.84 3.839s-1.719 3.84-3.84 3.84zM15.36 16.525h3.199l-1.92 3.2h2.24l-4.159 5.119 1.152-3.839h-2.112l1.6-4.48z"></path>
</symbol>
<symbol id="icon-16" viewBox="0 0 32 32">
<title>16</title>
<path d="M19.2 21.005c-0.090 0-0.208 0-0.34 0l1.147-1.412c1.018-0.338 1.753-1.297 1.753-2.428 0-1.414-1.146-2.559-2.56-2.559-0.512 0-0.987 0.154-1.387 0.413-0.394-1.701-1.912-2.973-3.733-2.973-2.12 0-3.839 1.719-3.839 3.84 0 1.743 1.162 3.212 2.753 3.681l-0.432 1.209c-2.086-0.647-3.602-2.591-3.602-4.89 0-2.827 2.292-5.12 5.119-5.12 1.921 0 3.593 1.060 4.469 2.625 0.212-0.036 0.428-0.066 0.651-0.066 2.121 0 3.84 1.719 3.84 3.839s-1.719 3.84-3.84 3.84zM15.36 16.525h3.199l-1.92 3.2h2.24l-4.159 5.119 1.152-3.839h-2.112l1.6-4.48z"></path>
</symbol>
<symbol id="icon-17" viewBox="0 0 32 32">
<title>17</title>
<path d="M25.599 13.965h-1.28c-0.353 0-0.64-0.286-0.64-0.64s0.287-0.64 0.64-0.64h1.28c0.353 0 0.64 0.287 0.64 0.64s-0.286 0.64-0.64 0.64zM23.085 9.706c-0.25 0.25-0.655 0.25-0.905 0s-0.25-0.655 0-0.905l0.905-0.905c0.25-0.25 0.655-0.25 0.905 0s0.25 0.655 0 0.905l-0.905 0.905zM22.141 14.7v0c0.429 0.512 0.727 1.138 0.843 1.825h-0.003c0.035 0.209 0.058 0.422 0.058 0.64 0 2.121-1.719 3.84-3.839 3.84-0.090 0-0.208 0-0.34 0l1.147-1.412c1.018-0.338 1.753-1.297 1.753-2.428 0-0.221-0.031-0.435-0.084-0.64v0c-0.284-1.103-1.284-1.92-2.476-1.92-0.512 0-0.987 0.154-1.387 0.413-0.394-1.701-1.911-2.973-3.732-2.973-2.121 0-3.84 1.719-3.84 3.84 0 0.218 0.022 0.431 0.058 0.64h-0.004c0.244 1.456 1.308 2.631 2.7 3.042l-0.432 1.209c-1.889-0.586-3.306-2.237-3.557-4.251v0c-0.026-0.21-0.044-0.423-0.044-0.64 0-2.828 2.292-5.12 5.119-5.12 0.503 0 0.988 0.074 1.447 0.21 0.702-0.905 1.798-1.489 3.032-1.489 2.121 0 3.84 1.719 3.84 3.839-0 0.485-0.094 0.947-0.258 1.374zM18.56 10.766c-0.708 0-1.349 0.287-1.812 0.752 0.749 0.459 1.371 1.104 1.801 1.873 0.212-0.036 0.428-0.066 0.651-0.066 0.68 0 1.318 0.179 1.872 0.489v0c0.031-0.158 0.048-0.321 0.048-0.489 0-1.414-1.146-2.56-2.56-2.56zM18.56 8.206c-0.353 0-0.64-0.287-0.64-0.64v-1.28c0-0.353 0.287-0.64 0.64-0.64s0.64 0.287 0.64 0.64v1.28c0 0.353-0.286 0.64-0.64 0.64zM14.035 9.706l-0.905-0.905c-0.25-0.25-0.25-0.655 0-0.905s0.655-0.25 0.905 0l0.905 0.905c0.25 0.25 0.25 0.655 0 0.905s-0.655 0.25-0.905 0zM15.36 16.525h3.2l-1.92 3.2h2.24l-4.159 5.119 1.152-3.839h-2.112l1.6-4.48z"></path>
</symbol>
<symbol id="icon-18" viewBox="0 0 32 32">
<title>18</title>
<path d="M20.462 20.781v-1.402c0.764-0.443 1.28-1.268 1.28-2.214 0-1.413-1.146-2.56-2.56-2.56-0.512 0-0.986 0.154-1.387 0.413-0.394-1.701-1.912-2.973-3.733-2.973-2.12 0-3.839 1.719-3.839 3.839 0 1.136 0.496 2.153 1.28 2.856v1.573c-1.529-0.886-2.56-2.535-2.56-4.429 0-2.827 2.292-5.119 5.119-5.119 1.921 0 3.593 1.060 4.469 2.625 0.212-0.036 0.428-0.066 0.651-0.066 2.121 0 3.84 1.719 3.84 3.84 0 1.671-1.069 3.089-2.56 3.616zM13.423 17.165c0.353 0 0.64 0.287 0.64 0.64v5.119c0 0.354-0.286 0.64-0.64 0.64s-0.64-0.286-0.64-0.64v-5.119c0-0.353 0.287-0.64 0.64-0.64zM15.982 18.445c0.353 0 0.64 0.286 0.64 0.64v5.119c0 0.353-0.287 0.64-0.64 0.64s-0.64-0.287-0.64-0.64v-5.119c0-0.354 0.287-0.64 0.64-0.64zM18.542 17.165c0.353 0 0.64 0.287 0.64 0.64v5.119c0 0.354-0.286 0.64-0.64 0.64s-0.64-0.286-0.64-0.64v-5.119c0-0.353 0.287-0.64 0.64-0.64z"></path>
</symbol>
<symbol id="icon-19" viewBox="0 0 32 32">
<title>19</title>
<path d="M20.462 20.781v-1.402c0.764-0.443 1.279-1.268 1.279-2.214 0-1.414-1.146-2.56-2.559-2.56-0.513 0-0.987 0.154-1.387 0.413-0.394-1.701-1.911-2.973-3.732-2.973-2.121 0-3.839 1.719-3.839 3.84 0 1.136 0.496 2.153 1.279 2.856v1.572c-1.529-0.886-2.559-2.535-2.559-4.429 0-2.828 2.292-5.119 5.119-5.119 1.921 0 3.593 1.060 4.469 2.625 0.212-0.036 0.428-0.066 0.651-0.066 2.121 0 3.839 1.719 3.839 3.84 0 1.671-1.069 3.089-2.559 3.616zM13.422 17.165c0.353 0 0.64 0.286 0.64 0.64v1.279c0 0.354-0.287 0.64-0.64 0.64s-0.64-0.286-0.64-0.64v-1.279c0-0.354 0.286-0.64 0.64-0.64zM13.422 21.004c0.353 0 0.64 0.286 0.64 0.64v1.279c0 0.354-0.287 0.64-0.64 0.64s-0.64-0.286-0.64-0.64v-1.279c0-0.354 0.286-0.64 0.64-0.64zM15.982 18.444c0.354 0 0.64 0.287 0.64 0.64v1.28c0 0.353-0.286 0.64-0.64 0.64s-0.639-0.287-0.639-0.64v-1.28c0-0.353 0.286-0.64 0.639-0.64zM15.982 22.284c0.354 0 0.64 0.286 0.64 0.639v1.28c0 0.354-0.286 0.64-0.64 0.64s-0.639-0.286-0.639-0.64v-1.28c0-0.353 0.286-0.639 0.639-0.639zM18.542 17.165c0.353 0 0.64 0.286 0.64 0.64v1.279c0 0.354-0.287 0.64-0.64 0.64s-0.64-0.286-0.64-0.64v-1.279c0-0.354 0.286-0.64 0.64-0.64zM18.542 21.004c0.353 0 0.64 0.286 0.64 0.64v1.279c0 0.354-0.287 0.64-0.64 0.64s-0.64-0.286-0.64-0.64v-1.279c0-0.354 0.286-0.64 0.64-0.64z"></path>
</symbol>
<symbol id="icon-20" viewBox="0 0 32 32">
<title>20</title>
<path d="M19.182 13.325c-0.223 0-0.438 0.029-0.651 0.066-0.876-1.565-2.548-2.625-4.469-2.625-2.827 0-5.119 2.292-5.119 5.119 0 1.917 1.056 3.586 2.617 4.463 0.088-0.404 0.285-0.789 0.599-1.102l0.018-0.018c-1.166-0.66-1.954-1.908-1.954-3.342 0-2.12 1.719-3.839 3.839-3.839 1.821 0 3.339 1.272 3.733 2.973 0.4-0.259 0.875-0.413 1.387-0.413 1.414 0 2.56 1.146 2.56 2.56 0 1.102-0.698 2.039-1.675 2.399 0.252 0.367 0.382 0.791 0.391 1.218 1.493-0.526 2.564-1.945 2.564-3.618-0.001-2.121-1.72-3.84-3.84-3.84zM13.742 19.472l-0.679 0.679c-0.375 0.375-0.375 0.982 0 1.357s0.983 0.375 1.357 0c0.375-0.375 0.375-0.982 0-1.357l-0.679-0.679zM15.982 22.031l-0.679 0.679c-0.375 0.375-0.375 0.983 0 1.357s0.982 0.375 1.357 0c0.375-0.374 0.375-0.982 0-1.357l-0.678-0.679zM18.222 19.472l-0.679 0.679c-0.375 0.375-0.375 0.982 0 1.357s0.982 0.375 1.357 0c0.375-0.375 0.375-0.982 0-1.357l-0.679-0.679z"></path>
</symbol>
<symbol id="icon-21" viewBox="0 0 32 32">
<title>21</title>
<path d="M19.182 13.325c-0.223 0-0.438 0.029-0.651 0.066-0.876-1.565-2.548-2.625-4.469-2.625-2.827 0-5.119 2.292-5.119 5.119 0 1.917 1.056 3.586 2.617 4.463 0.088-0.404 0.285-0.789 0.599-1.102l0.018-0.018c-1.166-0.66-1.954-1.908-1.954-3.342 0-2.12 1.719-3.839 3.839-3.839 1.821 0 3.339 1.272 3.733 2.973 0.4-0.259 0.875-0.413 1.387-0.413 1.414 0 2.56 1.146 2.56 2.56 0 1.102-0.698 2.039-1.675 2.399 0.252 0.367 0.382 0.791 0.391 1.218 1.493-0.526 2.564-1.945 2.564-3.618-0.001-2.121-1.72-3.84-3.84-3.84zM13.742 19.472l-0.679 0.679c-0.375 0.375-0.375 0.982 0 1.357s0.983 0.375 1.357 0c0.375-0.375 0.375-0.982 0-1.357l-0.679-0.679zM15.982 22.031l-0.679 0.679c-0.375 0.375-0.375 0.983 0 1.357s0.982 0.375 1.357 0c0.375-0.374 0.375-0.982 0-1.357l-0.678-0.679zM18.222 19.472l-0.679 0.679c-0.375 0.375-0.375 0.982 0 1.357s0.982 0.375 1.357 0c0.375-0.375 0.375-0.982 0-1.357l-0.679-0.679z"></path>
</symbol>
<symbol id="icon-22" viewBox="0 0 32 32">
<title>22</title>
<path d="M19.091 14.955l-0.627 0.362c0.060 0.218 0.095 0.447 0.095 0.684s-0.035 0.466-0.095 0.684l0.627 0.362c0.306 0.177 0.411 0.568 0.234 0.874s-0.568 0.411-0.874 0.234l-0.625-0.361c-0.321 0.326-0.729 0.565-1.186 0.683v0.724c0 0.353-0.287 0.64-0.64 0.64s-0.64-0.287-0.64-0.64v-0.724c-0.457-0.118-0.865-0.356-1.186-0.683l-0.625 0.361c-0.306 0.177-0.698 0.072-0.874-0.234s-0.072-0.698 0.234-0.874l0.627-0.362c-0.060-0.218-0.095-0.447-0.095-0.684s0.035-0.466 0.095-0.684l-0.627-0.362c-0.306-0.177-0.411-0.568-0.234-0.874s0.568-0.411 0.874-0.234l0.625 0.361c0.321-0.326 0.729-0.565 1.186-0.683v-0.724c0-0.353 0.287-0.64 0.64-0.64s0.64 0.287 0.64 0.64v0.724c0.457 0.118 0.865 0.356 1.186 0.683l0.625-0.361c0.306-0.177 0.698-0.072 0.874 0.234s0.072 0.698-0.234 0.874zM16 14.72c-0.707 0-1.28 0.573-1.28 1.28s0.573 1.28 1.28 1.28 1.28-0.573 1.28-1.28c0-0.707-0.573-1.28-1.28-1.28z"></path>
</symbol>
<symbol id="icon-23" viewBox="0 0 32 32">
<title>23</title>
<path d="M20.48 20.782v-1.402c0.764-0.443 1.28-1.268 1.28-2.215 0-1.413-1.146-2.559-2.56-2.559-0.512 0-0.987 0.154-1.387 0.413-0.394-1.701-1.912-2.973-3.733-2.973-2.121 0-3.839 1.719-3.839 3.84 0 1.136 0.496 2.153 1.28 2.856v1.573c-1.529-0.886-2.56-2.535-2.56-4.429 0-2.828 2.292-5.12 5.119-5.12 1.921 0 3.593 1.060 4.469 2.625 0.212-0.036 0.428-0.066 0.651-0.066 2.121 0 3.84 1.719 3.84 3.839 0 1.671-1.070 3.089-2.56 3.617zM13.44 18.445c0.354 0 0.64 0.287 0.64 0.64s-0.286 0.64-0.64 0.64c-0.353 0-0.64-0.286-0.64-0.64s0.286-0.64 0.64-0.64zM13.44 21.005c0.354 0 0.64 0.286 0.64 0.64s-0.286 0.639-0.64 0.639c-0.353 0-0.64-0.286-0.64-0.639s0.286-0.64 0.64-0.64zM16 19.725c0.353 0 0.64 0.286 0.64 0.64s-0.287 0.64-0.64 0.64c-0.354 0-0.64-0.287-0.64-0.64s0.286-0.64 0.64-0.64zM16 22.284c0.353 0 0.64 0.287 0.64 0.64s-0.287 0.64-0.64 0.64c-0.354 0-0.64-0.286-0.64-0.64s0.286-0.64 0.64-0.64zM18.56 18.445c0.354 0 0.64 0.287 0.64 0.64s-0.286 0.64-0.64 0.64c-0.353 0-0.64-0.286-0.64-0.64s0.287-0.64 0.64-0.64zM18.56 21.005c0.354 0 0.64 0.286 0.64 0.64s-0.286 0.639-0.64 0.639c-0.353 0-0.64-0.286-0.64-0.639s0.287-0.64 0.64-0.64z"></path>
</symbol>
<symbol id="icon-24" viewBox="0 0 32 32">
<title>24</title>
<path d="M19.091 14.955l-0.627 0.362c0.060 0.218 0.095 0.447 0.095 0.684s-0.035 0.466-0.095 0.684l0.627 0.362c0.306 0.177 0.411 0.568 0.234 0.874s-0.568 0.411-0.874 0.234l-0.625-0.361c-0.321 0.326-0.729 0.565-1.186 0.683v0.724c0 0.353-0.287 0.64-0.64 0.64s-0.64-0.287-0.64-0.64v-0.724c-0.457-0.118-0.865-0.356-1.186-0.683l-0.625 0.361c-0.306 0.177-0.698 0.072-0.874-0.234s-0.072-0.698 0.234-0.874l0.627-0.362c-0.060-0.218-0.095-0.447-0.095-0.684s0.035-0.466 0.095-0.684l-0.627-0.362c-0.306-0.177-0.411-0.568-0.234-0.874s0.568-0.411 0.874-0.234l0.625 0.361c0.321-0.326 0.729-0.565 1.186-0.683v-0.724c0-0.353 0.287-0.64 0.64-0.64s0.64 0.287 0.64 0.64v0.724c0.457 0.118 0.865 0.356 1.186 0.683l0.625-0.361c0.306-0.177 0.698-0.072 0.874 0.234s0.072 0.698-0.234 0.874zM16 14.72c-0.707 0-1.28 0.573-1.28 1.28s0.573 1.28 1.28 1.28 1.28-0.573 1.28-1.28c0-0.707-0.573-1.28-1.28-1.28z"></path>
</symbol>
<symbol id="icon-25" viewBox="0 0 32 32">
<title>25</title>
<path d="M19.839 20.948v-1.306c1.103-0.285 1.92-1.284 1.92-2.476 0-1.413-1.146-2.56-2.56-2.56-0.512 0-0.987 0.154-1.387 0.413-0.394-1.701-1.911-2.973-3.732-2.973-2.121 0-3.84 1.719-3.84 3.84 0 1.42 0.773 2.658 1.92 3.321v1.422c-1.875-0.76-3.199-2.596-3.199-4.744 0-2.827 2.292-5.12 5.119-5.12 1.921 0 3.593 1.060 4.469 2.625 0.212-0.036 0.428-0.066 0.651-0.066 2.12 0 3.839 1.719 3.839 3.839 0 1.903-1.384 3.477-3.2 3.783zM13.783 19.085c0.177-0.306 0.568-0.411 0.874-0.234l0.703 0.405v-0.811c0-0.353 0.287-0.64 0.64-0.64s0.64 0.287 0.64 0.64v0.811l0.702-0.406c0.306-0.176 0.698-0.072 0.874 0.234s0.072 0.698-0.234 0.874l-0.703 0.406 0.703 0.406c0.306 0.177 0.411 0.568 0.234 0.874s-0.568 0.411-0.874 0.234l-0.702-0.405v0.811c0 0.354-0.287 0.64-0.64 0.64s-0.64-0.286-0.64-0.64v-0.811l-0.702 0.406c-0.306 0.177-0.698 0.072-0.874-0.234s-0.072-0.698 0.234-0.874l0.702-0.406-0.702-0.406c-0.306-0.177-0.411-0.568-0.235-0.874zM16 21.005c0.353 0 0.64-0.287 0.64-0.64s-0.287-0.64-0.64-0.64-0.64 0.286-0.64 0.64c0 0.353 0.287 0.64 0.64 0.64z"></path>
</symbol>
<symbol id="icon-26" viewBox="0 0 32 32">
<title>26</title>
<path d="M20.48 20.781v-1.402c0.764-0.443 1.28-1.268 1.28-2.214 0-1.413-1.146-2.56-2.559-2.56-0.512 0-0.987 0.154-1.387 0.413-0.394-1.701-1.912-2.973-3.733-2.973-2.12 0-3.839 1.719-3.839 3.839 0 1.136 0.496 2.153 1.28 2.856v1.573c-1.528-0.886-2.559-2.535-2.559-4.429 0-2.827 2.292-5.119 5.119-5.119 1.921 0 3.593 1.060 4.469 2.625 0.212-0.036 0.428-0.066 0.651-0.066 2.12 0 3.839 1.719 3.839 3.84 0 1.671-1.069 3.089-2.56 3.616zM13.441 21.004c-0.353 0-0.32-0.286-0.32-0.639v-2.56c0-0.353-0.033-0.64 0.32-0.64s0.32 0.287 0.32 0.64v2.56c0 0.353 0.033 0.639-0.32 0.639zM13.441 22.284c0.353 0 0.64 0.287 0.64 0.64s-0.286 0.64-0.64 0.64-0.64-0.286-0.64-0.64c0-0.353 0.286-0.64 0.64-0.64zM16 22.284c-0.353 0-0.32-0.286-0.32-0.64v-2.559c0-0.354-0.033-0.64 0.32-0.64s0.32 0.286 0.32 0.64v2.559c0 0.354 0.033 0.64-0.32 0.64zM16 23.564c0.353 0 0.64 0.286 0.64 0.64s-0.286 0.64-0.64 0.64-0.64-0.287-0.64-0.64c0-0.354 0.286-0.64 0.64-0.64zM18.56 21.004c-0.353 0-0.32-0.286-0.32-0.639v-2.56c0-0.353-0.033-0.64 0.32-0.64s0.32 0.287 0.32 0.64v2.56c0 0.353 0.033 0.639-0.32 0.639zM18.56 22.284c0.353 0 0.64 0.287 0.64 0.64s-0.287 0.64-0.64 0.64-0.64-0.286-0.64-0.64c0-0.353 0.287-0.64 0.64-0.64z"></path>
</symbol>
<symbol id="icon-27" viewBox="0 0 32 32">
<title>27</title>
<path d="M23.359 22.924c-0.353 0-0.64-0.286-0.64-0.64s0.286-0.64 0.64-0.64 0.64 0.287 0.64 0.64c0 0.354-0.286 0.64-0.64 0.64zM20.479 20.781v-1.402c0.764-0.443 1.28-1.268 1.28-2.214 0-1.413-1.146-2.56-2.56-2.56-0.512 0-0.987 0.154-1.387 0.413-0.394-1.701-1.911-2.973-3.732-2.973-2.121 0-3.84 1.719-3.84 3.839 0 1.136 0.496 2.153 1.28 2.856v1.573c-1.529-0.886-2.56-2.535-2.56-4.429 0-2.827 2.292-5.119 5.119-5.119 1.921 0 3.593 1.060 4.469 2.625 0.212-0.036 0.428-0.066 0.651-0.066 2.12 0 3.839 1.719 3.839 3.84 0 1.671-1.069 3.089-2.56 3.616zM9.921 23.244c0.353 0 0.64 0.286 0.64 0.64s-0.286 0.64-0.64 0.64-0.64-0.287-0.64-0.64c0-0.354 0.286-0.64 0.64-0.64zM13.12 17.805c0-0.353-0.033-0.64 0.32-0.64s0.32 0.287 0.32 0.64v7.679h-0.64c0-0.707-0.573-1.28-1.28-1.28v-0.64c0.494 0 0.94 0.192 1.28 0.498v-6.258zM16 22.284c-0.353 0-0.32-0.286-0.32-0.64v-2.559c0-0.354-0.033-0.64 0.32-0.64s0.32 0.286 0.32 0.64v2.559c0 0.354 0.033 0.64-0.32 0.64zM16 23.564c0.353 0 0.64 0.286 0.64 0.64s-0.287 0.64-0.64 0.64-0.64-0.287-0.64-0.64c0-0.354 0.287-0.64 0.64-0.64zM18.56 17.165c0.353 0 0.32 0.287 0.32 0.64v5.765c0.583-0.779 1.511-1.286 2.56-1.286v0.64c-1.414 0-2.56 1.146-2.56 2.56h-0.64c0-0.087 0.006-0.173 0.013-0.258-0.017-0.107-0.013-0.238-0.013-0.382v-7.039c0-0.353-0.033-0.64 0.32-0.64z"></path>
</symbol>
<symbol id="icon-30" viewBox="0 0 32 32">
<title>30</title>
<path d="M16 21.717c-1.414 0-2.56-1.146-2.56-2.56 0-0.648 0.243-1.238 0.64-1.689v-5.349c0-1.060 0.86-1.92 1.92-1.92s1.92 0.86 1.92 1.92v5.349c0.397 0.451 0.639 1.041 0.639 1.689 0 1.414-1.146 2.56-2.559 2.56zM16.64 18.055v-5.936c0-0.353-0.287-0.64-0.64-0.64s-0.64 0.287-0.64 0.64v5.936c-0.38 0.222-0.64 0.63-0.64 1.102 0 0.707 0.573 1.28 1.28 1.28s1.28-0.573 1.28-1.28c0-0.472-0.26-0.881-0.64-1.102zM16 20.117c-0.53 0-0.96-0.43-0.96-0.96 0-0.418 0.268-0.769 0.64-0.901v-6.138c0-0.177 0.143-0.32 0.32-0.32s0.32 0.143 0.32 0.32v6.138c0.372 0.132 0.64 0.484 0.64 0.901 0 0.53-0.43 0.96-0.96 0.96z"></path>
</symbol>
<symbol id="icon-31" viewBox="0 0 32 32">
<title>31</title>
<path d="M16 21.759c-1.413 0-2.56-1.146-2.56-2.56 0-0.648 0.243-1.238 0.64-1.689v-5.35c0-1.060 0.86-1.92 1.92-1.92s1.92 0.86 1.92 1.92v5.35c0.397 0.451 0.64 1.041 0.64 1.689 0 1.414-1.146 2.56-2.56 2.56zM16.64 18.097v-5.937c0-0.353-0.287-0.64-0.64-0.64s-0.64 0.287-0.64 0.64v5.937c-0.381 0.222-0.64 0.63-0.64 1.102 0 0.707 0.573 1.28 1.28 1.28s1.28-0.573 1.28-1.28c0-0.473-0.259-0.881-0.64-1.102zM16 20.159c-0.53 0-0.96-0.43-0.96-0.96s0.43-0.96 0.96-0.96c0.53 0 0.96 0.43 0.96 0.96s-0.43 0.96-0.96 0.96z"></path>
</symbol>
<symbol id="icon-32" viewBox="0 0 32 32">
<title>32</title>
<path d="M21.12 16.64v0h-0.96c-0.354 0-0.64-0.286-0.64-0.64s0.286-0.64 0.64-0.64h0.96c0.353 0 0.64-0.287 0.64-0.64s-0.287-0.64-0.64-0.64c-0.354 0-0.64-0.287-0.64-0.64s0.286-0.64 0.64-0.64c0.044 0 0.087 0.004 0.129 0.013 0.999 0.068 1.791 0.891 1.791 1.907 0 1.060-0.859 1.919-1.919 1.919zM17.92 15.36h-7.039c-0.353 0-0.64 0.287-0.64 0.64s0.286 0.64 0.64 0.64h7.039c1.060 0 1.92 0.86 1.92 1.92 0 1.016-0.792 1.839-1.791 1.907-0.042 0.009-0.085 0.013-0.129 0.013-0.353 0-0.64-0.287-0.64-0.64s0.287-0.64 0.64-0.64c0.354 0 0.64-0.287 0.64-0.64s-0.286-0.64-0.64-0.64h-7.039c-1.060 0-1.92-0.86-1.92-1.92 0-1.016 0.792-1.839 1.791-1.907 0.042-0.008 0.085-0.013 0.129-0.013v0h7.039c0.354 0 0.64-0.287 0.64-0.64s-0.286-0.64-0.64-0.64c-0.353 0-0.64-0.286-0.64-0.64s0.287-0.64 0.64-0.64c0.044 0 0.087 0.005 0.129 0.013 0.999 0.068 1.791 0.891 1.791 1.907 0 1.060-0.86 1.92-1.92 1.92z"></path>
</symbol>
<symbol id="icon-33" viewBox="0 0 32 32">
<title>33</title>
<path d="M16 19.839c-2.121 0-3.84-1.719-3.84-3.839s1.719-3.84 3.84-3.84c0.242 0 0.477 0.025 0.706 0.068-0.042 0.184-0.067 0.375-0.067 0.572 0 1.414 1.146 2.56 2.56 2.56 0.197 0 0.388-0.024 0.572-0.067 0.043 0.229 0.068 0.465 0.068 0.707 0 2.12-1.719 3.839-3.839 3.839zM15.428 13.507c-1.138 0.26-1.988 1.276-1.988 2.493 0 1.413 1.146 2.56 2.56 2.56 1.217 0 2.233-0.85 2.493-1.988-1.553-0.289-2.776-1.512-3.065-3.066z"></path>
</symbol>
<symbol id="icon-34" viewBox="0 0 32 32">
<title>34</title>
<path d="M16 19.839c-2.121 0-3.84-1.719-3.84-3.839s1.719-3.84 3.84-3.84c0.242 0 0.477 0.025 0.706 0.068-0.042 0.184-0.067 0.375-0.067 0.572 0 1.414 1.146 2.56 2.56 2.56 0.197 0 0.388-0.024 0.572-0.067 0.043 0.229 0.068 0.465 0.068 0.707 0 2.12-1.719 3.839-3.839 3.839zM15.428 13.507c-1.138 0.26-1.988 1.276-1.988 2.493 0 1.413 1.146 2.56 2.56 2.56 1.217 0 2.233-0.85 2.493-1.988-1.553-0.289-2.776-1.512-3.065-3.066z"></path>
</symbol>
<symbol id="icon-35" viewBox="0 0 32 32">
<title>35</title>
<path d="M22.324 14.963v0c0.438 0.624 0.697 1.382 0.697 2.203 0 2.12-1.719 3.839-3.839 3.839-0.888 0-4.096 0-5.119 0-2.828 0-5.119-2.292-5.119-5.119s2.292-5.119 5.119-5.119c0.641 0 1.252 0.12 1.818 0.335v0c0.523-1.498 1.945-2.575 3.622-2.575 0.242 0 0.477 0.025 0.706 0.068-0.042 0.184-0.066 0.375-0.066 0.572 0 1.414 1.146 2.56 2.559 2.56 0.197 0 0.388-0.024 0.572-0.067 0.043 0.229 0.068 0.465 0.068 0.707-0 1.003-0.388 1.913-1.017 2.597zM10.223 15.885c0 2.121 1.719 3.839 3.839 3.839 1.157 0 4.153 0 5.119 0 1.414 0 2.56-1.146 2.56-2.559s-1.146-2.56-2.56-2.56c-0.512 0-0.987 0.154-1.387 0.413-0.394-1.701-1.911-2.973-3.732-2.973-2.121 0-3.839 1.719-3.839 3.84zM16.479 11.374c0 0 0.001 0 0.001 0s-0 0-0.001 0zM18.93 9.872c-0.928 0.212-1.656 0.931-1.896 1.848v0c0.614 0.439 1.127 1.009 1.498 1.67 0.212-0.036 0.428-0.066 0.651-0.066 0.838 0 1.611 0.272 2.242 0.727v0c0.275-0.313 0.475-0.694 0.572-1.114-1.553-0.289-2.776-1.511-3.065-3.065z"></path>
</symbol>
<symbol id="icon-36" viewBox="0 0 32 32">
<title>36</title>
<path d="M22.324 14.963v0c0.438 0.624 0.697 1.382 0.697 2.203 0 2.12-1.719 3.839-3.839 3.839-0.888 0-4.096 0-5.119 0-2.828 0-5.119-2.292-5.119-5.119s2.292-5.119 5.119-5.119c0.641 0 1.252 0.12 1.818 0.335v0c0.523-1.498 1.945-2.575 3.622-2.575 0.242 0 0.477 0.025 0.706 0.068-0.042 0.184-0.066 0.375-0.066 0.572 0 1.414 1.146 2.56 2.559 2.56 0.197 0 0.388-0.024 0.572-0.067 0.043 0.229 0.068 0.465 0.068 0.707-0 1.003-0.388 1.913-1.017 2.597zM10.223 15.885c0 2.121 1.719 3.839 3.839 3.839 1.157 0 4.153 0 5.119 0 1.414 0 2.56-1.146 2.56-2.559s-1.146-2.56-2.56-2.56c-0.512 0-0.987 0.154-1.387 0.413-0.394-1.701-1.911-2.973-3.732-2.973-2.121 0-3.839 1.719-3.839 3.84zM16.479 11.374c0 0 0.001 0 0.001 0s-0 0-0.001 0zM18.93 9.872c-0.928 0.212-1.656 0.931-1.896 1.848v0c0.614 0.439 1.127 1.009 1.498 1.67 0.212-0.036 0.428-0.066 0.651-0.066 0.838 0 1.611 0.272 2.242 0.727v0c0.275-0.313 0.475-0.694 0.572-1.114-1.553-0.289-2.776-1.511-3.065-3.065z"></path>
</symbol>
<symbol id="icon-37" viewBox="0 0 32 32">
<title>37</title>
<path d="M22.342 14.963v0c0.197 0.282 0.353 0.593 0.47 0.923h-1.398c-0.443-0.764-1.268-1.28-2.215-1.28-0.512 0-0.986 0.154-1.387 0.413-0.394-1.701-1.912-2.973-3.733-2.973-2.12 0-3.839 1.719-3.839 3.84v0h-1.28c0-2.827 2.292-5.119 5.119-5.119 0.641 0 1.252 0.12 1.818 0.335v0c0.523-1.499 1.945-2.575 3.622-2.575 0.242 0 0.477 0.025 0.707 0.068-0.042 0.184-0.067 0.375-0.067 0.572 0 1.414 1.146 2.559 2.56 2.559 0.197 0 0.388-0.024 0.572-0.066 0.043 0.229 0.068 0.465 0.068 0.706 0 1.003-0.388 1.913-1.017 2.597zM18.948 9.873c-0.928 0.212-1.656 0.931-1.896 1.848v0c0.613 0.439 1.127 1.009 1.497 1.671 0.212-0.036 0.428-0.066 0.651-0.066 0.838 0 1.611 0.271 2.242 0.727v0c0.275-0.314 0.475-0.694 0.571-1.114-1.553-0.29-2.776-1.512-3.065-3.066zM9.601 17.165h12.799c0.353 0 0.64 0.287 0.64 0.64s-0.287 0.64-0.64 0.64h-12.799c-0.353 0-0.64-0.287-0.64-0.64s0.287-0.64 0.64-0.64zM9.601 19.725h12.799c0.353 0 0.64 0.286 0.64 0.64s-0.287 0.64-0.64 0.64h-12.799c-0.353 0-0.64-0.287-0.64-0.64s0.287-0.64 0.64-0.64zM9.601 22.284h12.799c0.353 0 0.64 0.287 0.64 0.64s-0.287 0.64-0.64 0.64h-12.799c-0.353 0-0.64-0.287-0.64-0.64s0.287-0.64 0.64-0.64z"></path>
</symbol>
<symbol id="icon-38" viewBox="0 0 32 32">
<title>38</title>
<path d="M22.324 14.963v0c0.438 0.624 0.697 1.382 0.697 2.203 0 2.12-1.719 3.839-3.839 3.839-0.888 0-4.096 0-5.119 0-2.828 0-5.119-2.292-5.119-5.119s2.292-5.119 5.119-5.119c0.641 0 1.252 0.12 1.818 0.335v0c0.523-1.498 1.945-2.575 3.622-2.575 0.242 0 0.477 0.025 0.706 0.068-0.042 0.184-0.066 0.375-0.066 0.572 0 1.414 1.146 2.56 2.559 2.56 0.197 0 0.388-0.024 0.572-0.067 0.043 0.229 0.068 0.465 0.068 0.707-0 1.003-0.388 1.913-1.017 2.597zM10.223 15.885c0 2.121 1.719 3.839 3.839 3.839 1.157 0 4.153 0 5.119 0 1.414 0 2.56-1.146 2.56-2.559s-1.146-2.56-2.56-2.56c-0.512 0-0.987 0.154-1.387 0.413-0.394-1.701-1.911-2.973-3.732-2.973-2.121 0-3.839 1.719-3.839 3.84zM16.479 11.374c0 0 0.001 0 0.001 0s-0 0-0.001 0zM18.93 9.872c-0.928 0.212-1.656 0.931-1.896 1.848v0c0.614 0.439 1.127 1.009 1.498 1.67 0.212-0.036 0.428-0.066 0.651-0.066 0.838 0 1.611 0.272 2.242 0.727v0c0.275-0.313 0.475-0.694 0.572-1.114-1.553-0.289-2.776-1.511-3.065-3.065z"></path>
</symbol>
<symbol id="icon-39" viewBox="0 0 32 32">
<title>39</title>
<path d="M16 18.445c-0.354 0-0.64 0.286-0.64 0.64v5.119c0 0.353 0.286 0.64 0.64 0.64s0.64-0.287 0.64-0.64v-5.119c0-0.354-0.287-0.64-0.64-0.64zM18.56 17.165c-0.353 0-0.64 0.287-0.64 0.64v5.119c0 0.354 0.287 0.64 0.64 0.64s0.64-0.286 0.64-0.64v-5.119c0-0.353-0.286-0.64-0.64-0.64zM13.44 17.165c-0.353 0-0.64 0.287-0.64 0.64v5.119c0 0.354 0.287 0.64 0.64 0.64s0.64-0.286 0.64-0.64v-5.119c0-0.353-0.286-0.64-0.64-0.64zM23.359 12.365c0-0.241-0.025-0.477-0.068-0.706-0.184 0.042-0.375 0.067-0.572 0.067-1.414 0-2.56-1.146-2.56-2.56 0-0.197 0.024-0.388 0.066-0.572-0.229-0.043-0.464-0.068-0.706-0.068-1.677 0-3.099 1.077-3.622 2.575-0.565-0.215-1.177-0.335-1.818-0.335-2.827 0-5.119 2.292-5.119 5.119 0 1.894 1.031 3.544 2.56 4.429v-1.573c-0.784-0.703-1.28-1.72-1.28-2.856 0-2.12 1.719-3.839 3.839-3.839 1.821 0 3.339 1.271 3.733 2.973 0.4-0.26 0.875-0.413 1.387-0.413 1.414 0 2.56 1.146 2.56 2.56 0 0.947-0.515 1.772-1.28 2.214v1.402c1.49-0.527 2.56-1.945 2.56-3.616 0-0.82-0.26-1.579-0.698-2.202 0.63-0.684 1.017-1.594 1.017-2.597zM21.442 14.052c-0.631-0.456-1.404-0.727-2.242-0.727-0.223 0-0.438 0.029-0.651 0.066-0.37-0.662-0.884-1.232-1.497-1.671 0.24-0.917 0.968-1.636 1.896-1.848 0.289 1.554 1.512 2.776 3.065 3.066-0.096 0.42-0.297 0.8-0.571 1.114z"></path>
</symbol>
<symbol id="icon-40" viewBox="0 0 32 32">
<title>40</title>
<path d="M16 18.445c-0.354 0-0.64 0.286-0.64 0.64v5.119c0 0.353 0.286 0.64 0.64 0.64s0.64-0.287 0.64-0.64v-5.119c0-0.354-0.287-0.64-0.64-0.64zM18.56 17.165c-0.353 0-0.64 0.287-0.64 0.64v5.119c0 0.354 0.287 0.64 0.64 0.64s0.64-0.286 0.64-0.64v-5.119c0-0.353-0.286-0.64-0.64-0.64zM13.44 17.165c-0.353 0-0.64 0.287-0.64 0.64v5.119c0 0.354 0.287 0.64 0.64 0.64s0.64-0.286 0.64-0.64v-5.119c0-0.353-0.286-0.64-0.64-0.64zM23.359 12.365c0-0.241-0.025-0.477-0.068-0.706-0.184 0.042-0.375 0.067-0.572 0.067-1.414 0-2.56-1.146-2.56-2.56 0-0.197 0.024-0.388 0.066-0.572-0.229-0.043-0.464-0.068-0.706-0.068-1.677 0-3.099 1.077-3.622 2.575-0.565-0.215-1.177-0.335-1.818-0.335-2.827 0-5.119 2.292-5.119 5.119 0 1.894 1.031 3.544 2.56 4.429v-1.573c-0.784-0.703-1.28-1.72-1.28-2.856 0-2.12 1.719-3.839 3.839-3.839 1.821 0 3.339 1.271 3.733 2.973 0.4-0.26 0.875-0.413 1.387-0.413 1.414 0 2.56 1.146 2.56 2.56 0 0.947-0.515 1.772-1.28 2.214v1.402c1.49-0.527 2.56-1.945 2.56-3.616 0-0.82-0.26-1.579-0.698-2.202 0.63-0.684 1.017-1.594 1.017-2.597zM21.442 14.052c-0.631-0.456-1.404-0.727-2.242-0.727-0.223 0-0.438 0.029-0.651 0.066-0.37-0.662-0.884-1.232-1.497-1.671 0.24-0.917 0.968-1.636 1.896-1.848 0.289 1.554 1.512 2.776 3.065 3.066-0.096 0.42-0.297 0.8-0.571 1.114z"></path>
</symbol>
<symbol id="icon-41" viewBox="0 0 32 32">
<title>41</title>
<path d="M22.342 14.963v0c0.321 0.458 0.544 0.989 0.641 1.563h-0.001c0.035 0.209 0.058 0.421 0.058 0.64 0 2.121-1.719 3.84-3.84 3.84-0.089 0-0.207 0-0.34 0l1.147-1.412c1.018-0.338 1.753-1.296 1.753-2.428 0-0.221-0.031-0.435-0.084-0.64v0c-0.285-1.103-1.284-1.92-2.476-1.92-0.512 0-0.986 0.154-1.387 0.413-0.394-1.701-1.912-2.973-3.733-2.973-2.12 0-3.839 1.719-3.839 3.84 0 0.219 0.022 0.431 0.058 0.64h-0.004c0.244 1.455 1.308 2.631 2.7 3.042l-0.432 1.209c-1.889-0.586-3.306-2.237-3.557-4.251v0c-0.026-0.21-0.044-0.422-0.044-0.64 0-2.828 2.292-5.119 5.119-5.119 0.641 0 1.252 0.12 1.818 0.335v0c0.523-1.499 1.945-2.575 3.622-2.575 0.242 0 0.477 0.025 0.707 0.068-0.042 0.184-0.067 0.375-0.067 0.572 0 1.414 1.146 2.56 2.56 2.56 0.197 0 0.388-0.024 0.572-0.066 0.043 0.229 0.068 0.465 0.068 0.706 0 1.003-0.388 1.913-1.017 2.597zM18.948 9.873c-0.928 0.212-1.656 0.931-1.896 1.848v0c0.613 0.439 1.127 1.009 1.497 1.671 0.212-0.036 0.428-0.066 0.651-0.066 0.838 0 1.611 0.271 2.242 0.727v0c0.275-0.313 0.475-0.694 0.571-1.114-1.553-0.29-2.776-1.512-3.065-3.066zM15.36 16.525h3.2l-1.92 3.2h2.24l-4.16 5.119 1.152-3.839h-2.112l1.6-4.48z"></path>
</symbol>
<symbol id="icon-42" viewBox="0 0 32 32">
<title>42</title>
<path d="M22.342 14.963v0c0.321 0.458 0.544 0.989 0.641 1.563h-0.001c0.035 0.209 0.058 0.421 0.058 0.64 0 2.121-1.719 3.84-3.84 3.84-0.089 0-0.207 0-0.34 0l1.147-1.412c1.018-0.338 1.753-1.296 1.753-2.428 0-0.221-0.031-0.435-0.084-0.64v0c-0.285-1.103-1.284-1.92-2.476-1.92-0.512 0-0.986 0.154-1.387 0.413-0.394-1.701-1.912-2.973-3.733-2.973-2.12 0-3.839 1.719-3.839 3.84 0 0.219 0.022 0.431 0.058 0.64h-0.004c0.244 1.455 1.308 2.631 2.7 3.042l-0.432 1.209c-1.889-0.586-3.306-2.237-3.557-4.251v0c-0.026-0.21-0.044-0.422-0.044-0.64 0-2.828 2.292-5.119 5.119-5.119 0.641 0 1.252 0.12 1.818 0.335v0c0.523-1.499 1.945-2.575 3.622-2.575 0.242 0 0.477 0.025 0.707 0.068-0.042 0.184-0.067 0.375-0.067 0.572 0 1.414 1.146 2.56 2.56 2.56 0.197 0 0.388-0.024 0.572-0.066 0.043 0.229 0.068 0.465 0.068 0.706 0 1.003-0.388 1.913-1.017 2.597zM18.948 9.873c-0.928 0.212-1.656 0.931-1.896 1.848v0c0.613 0.439 1.127 1.009 1.497 1.671 0.212-0.036 0.428-0.066 0.651-0.066 0.838 0 1.611 0.271 2.242 0.727v0c0.275-0.313 0.475-0.694 0.571-1.114-1.553-0.29-2.776-1.512-3.065-3.066zM15.36 16.525h3.2l-1.92 3.2h2.24l-4.16 5.119 1.152-3.839h-2.112l1.6-4.48z"></path>
</symbol>
<symbol id="icon-43" viewBox="0 0 32 32">
<title>43</title>
<path d="M22.342 14.963v0c0.438 0.624 0.698 1.382 0.698 2.202 0 1.671-1.069 3.089-2.56 3.617v-1.402c0.764-0.443 1.28-1.268 1.28-2.215 0-1.413-1.146-2.56-2.56-2.56-0.512 0-0.987 0.154-1.387 0.413-0.394-1.701-1.912-2.973-3.733-2.973-2.12 0-3.839 1.719-3.839 3.84 0 1.136 0.496 2.153 1.28 2.856v1.573c-1.528-0.886-2.56-2.535-2.56-4.429 0-2.827 2.292-5.12 5.119-5.12 0.641 0 1.252 0.12 1.818 0.335v0c0.523-1.498 1.945-2.575 3.622-2.575 0.242 0 0.477 0.025 0.707 0.068-0.042 0.184-0.067 0.376-0.067 0.572 0 1.414 1.146 2.559 2.56 2.559 0.197 0 0.388-0.024 0.572-0.066 0.043 0.229 0.068 0.465 0.068 0.706 0 1.004-0.388 1.914-1.018 2.598zM18.948 9.873c-0.928 0.212-1.656 0.931-1.896 1.848v0c0.613 0.439 1.127 1.009 1.497 1.671 0.212-0.036 0.428-0.066 0.651-0.066 0.838 0 1.611 0.271 2.242 0.727v0c0.275-0.314 0.476-0.693 0.572-1.114-1.553-0.29-2.776-1.512-3.065-3.066zM13.783 19.085c0.177-0.306 0.568-0.411 0.874-0.234l0.703 0.406v-0.811c0-0.353 0.287-0.64 0.64-0.64s0.64 0.287 0.64 0.64v0.811l0.703-0.406c0.306-0.176 0.698-0.072 0.874 0.234s0.072 0.698-0.234 0.874l-0.702 0.406 0.703 0.406c0.306 0.177 0.411 0.568 0.234 0.874s-0.568 0.411-0.874 0.234l-0.703-0.405v0.811c0 0.354-0.287 0.64-0.64 0.64s-0.64-0.286-0.64-0.64v-0.811l-0.703 0.406c-0.306 0.177-0.698 0.072-0.874-0.234s-0.072-0.698 0.234-0.874l0.703-0.406-0.703-0.406c-0.306-0.177-0.411-0.568-0.234-0.875zM16 21.005c0.353 0 0.64-0.287 0.64-0.64s-0.287-0.64-0.64-0.64c-0.353 0-0.64 0.286-0.64 0.64s0.286 0.64 0.64 0.64z"></path>
</symbol>
<symbol id="icon-44" viewBox="0 0 32 32">
<title>44</title>
<path d="M22.341 14.963v0c0.438 0.624 0.698 1.382 0.698 2.202 0 1.671-1.069 3.089-2.559 3.617v-1.402c0.764-0.443 1.28-1.268 1.28-2.215 0-1.413-1.146-2.56-2.56-2.56-0.512 0-0.987 0.154-1.387 0.413-0.394-1.701-1.911-2.973-3.732-2.973-2.121 0-3.839 1.719-3.839 3.84 0 1.136 0.496 2.153 1.28 2.856v1.573c-1.529-0.886-2.56-2.535-2.56-4.429 0-2.827 2.292-5.12 5.119-5.12 0.641 0 1.252 0.12 1.818 0.335v0c0.523-1.498 1.945-2.575 3.622-2.575 0.242 0 0.477 0.025 0.706 0.068-0.042 0.184-0.066 0.376-0.066 0.572 0 1.414 1.146 2.559 2.559 2.559 0.197 0 0.388-0.024 0.572-0.066 0.043 0.229 0.068 0.465 0.068 0.706 0 1.004-0.388 1.914-1.018 2.598zM18.947 9.873c-0.928 0.212-1.656 0.931-1.896 1.848 0.614 0.439 1.127 1.009 1.498 1.671 0.212-0.036 0.428-0.066 0.651-0.066 0.837 0 1.611 0.271 2.242 0.727v0c0.275-0.314 0.475-0.693 0.572-1.114-1.553-0.29-2.776-1.512-3.066-3.066zM13.44 18.445c0.353 0 0.64 0.287 0.64 0.64s-0.287 0.64-0.64 0.64-0.64-0.286-0.64-0.64c0-0.353 0.286-0.64 0.64-0.64zM13.44 21.005c0.353 0 0.64 0.286 0.64 0.64s-0.287 0.639-0.64 0.639-0.64-0.286-0.64-0.639c0-0.354 0.286-0.64 0.64-0.64zM16 19.725c0.353 0 0.64 0.286 0.64 0.64s-0.287 0.64-0.64 0.64-0.64-0.287-0.64-0.64c0-0.354 0.286-0.64 0.64-0.64zM16 22.284c0.353 0 0.64 0.287 0.64 0.64s-0.287 0.64-0.64 0.64-0.64-0.286-0.64-0.64c0-0.353 0.286-0.64 0.64-0.64zM18.56 18.445c0.353 0 0.64 0.287 0.64 0.64s-0.287 0.64-0.64 0.64-0.64-0.286-0.64-0.64c0-0.353 0.287-0.64 0.64-0.64zM18.56 21.005c0.353 0 0.64 0.286 0.64 0.64s-0.287 0.639-0.64 0.639-0.64-0.286-0.64-0.639c0-0.354 0.287-0.64 0.64-0.64z"></path>
</symbol>
<symbol id="icon-pattaya-1" viewBox="0 0 32 32">
<title>pattaya-1</title>
<path fill="#32b1cc" style="fill: var(--color1, #32b1cc)" d="M7.5 9.5h1v3.5h-1z"></path>
<path fill="#cfdfe8" style="fill: var(--color2, #cfdfe8)" d="M17 3.5h6v9.5h-6z"></path>
<path fill="#aabece" style="fill: var(--color3, #aabece)" d="M11 1.5h6v11.5h-6z"></path>
<path fill="#394d5c" style="fill: var(--color4, #394d5c)" d="M12.5 3h1v1h-1z"></path>
<path fill="#394d5c" style="fill: var(--color4, #394d5c)" d="M14.5 3h1v1h-1z"></path>
<path fill="#394d5c" style="fill: var(--color4, #394d5c)" d="M12.5 5h1v1h-1z"></path>
<path fill="#394d5c" style="fill: var(--color4, #394d5c)" d="M14.5 5h1v1h-1z"></path>
<path fill="#394d5c" style="fill: var(--color4, #394d5c)" d="M12.5 7h1v1h-1z"></path>
<path fill="#394d5c" style="fill: var(--color4, #394d5c)" d="M14.5 7h1v1h-1z"></path>
<path fill="#394d5c" style="fill: var(--color4, #394d5c)" d="M18.5 5h1v1h-1z"></path>
<path fill="#394d5c" style="fill: var(--color4, #394d5c)" d="M20.5 5h1v1h-1z"></path>
<path fill="#394d5c" style="fill: var(--color4, #394d5c)" d="M18.5 7h1v1h-1z"></path>
<path fill="#394d5c" style="fill: var(--color4, #394d5c)" d="M20.5 7h1v1h-1z"></path>
<path fill="#394d5c" style="fill: var(--color4, #394d5c)" d="M18.5 9h1v1h-1z"></path>
<path fill="#394d5c" style="fill: var(--color4, #394d5c)" d="M20.5 9h1v1h-1z"></path>
<path fill="#394d5c" style="fill: var(--color4, #394d5c)" d="M12.5 9h1v1h-1z"></path>
<path fill="#394d5c" style="fill: var(--color4, #394d5c)" d="M14.5 9h1v1h-1z"></path>
<path fill="#aabece" style="fill: var(--color3, #aabece)" d="M23 7.5h4v5.5h-4z"></path>
<path fill="#394d5c" style="fill: var(--color4, #394d5c)" d="M24.5 9h1v1h-1z"></path>
<path fill="#32b1cc" style="fill: var(--color1, #32b1cc)" d="M24.5 5h1v2.5h-1z"></path>
<path fill="#f8ca4d" style="fill: var(--color5, #f8ca4d)" d="M9 9c0 0.552-0.448 1-1 1s-1-0.448-1-1c0-0.552 0.448-1 1-1s1 0.448 1 1z"></path>
<path fill="#7768e5" style="fill: var(--color6, #7768e5)" d="M1.5 21.5h29v9h-29z"></path>
<path fill="#f8ca4d" style="fill: var(--color5, #f8ca4d)" d="M10 27.5h-4l-1-2h6z"></path>
<path fill="#2d75bb" style="fill: var(--color7, #2d75bb)" d="M4 27h8v1h-8z"></path>
<path fill="#d9176c" style="fill: var(--color8, #d9176c)" d="M6 23.5h3v2h-3z"></path>
<path fill="#f8ca4d" style="fill: var(--color5, #f8ca4d)" d="M21.5 28.5h4l1-2h-6z"></path>
<path fill="#2d75bb" style="fill: var(--color7, #2d75bb)" d="M19.5 28h8v1h-8z"></path>
<path fill="#d9176c" style="fill: var(--color8, #d9176c)" d="M25.5 26.5h-3v-2h3z"></path>
<path fill="#2d75bb" style="fill: var(--color7, #2d75bb)" d="M12.5 23.5h5v1h-5z"></path>
<path fill="#2d75bb" style="fill: var(--color7, #2d75bb)" d="M15 25.5h4v1h-4z"></path>
<path fill="#2d75bb" style="fill: var(--color7, #2d75bb)" d="M14 28h3v1h-3z"></path>
<path fill="#2d75bb" style="fill: var(--color7, #2d75bb)" d="M27 23.5h2v1h-2z"></path>
<path fill="#eb8cb3" style="fill: var(--color9, #eb8cb3)" d="M1.5 21.5v-8.5l2.5-1 4 0.5 3-0.5 3.5 0.5 4.5-1h3.5l3 0.5h2.5l2.5-0.5v10z"></path>
<path fill="#353688" style="fill: var(--color10, #353688)" d="M5.5 14h-2c-0.276 0-0.5 0.224-0.5 0.5v0 3.5h1v-1h1.5c0.276 0 0.5-0.224 0.5-0.5v0-2c0-0.276-0.224-0.5-0.5-0.5v0zM5 16h-1v-1h1z"></path>
<path fill="#353688" style="fill: var(--color10, #353688)" d="M9.723 14.553l-1-0.5c-0.065-0.033-0.142-0.053-0.223-0.053s-0.158 0.019-0.226 0.054l0.003-0.001-1 0.5c-0.165 0.084-0.277 0.253-0.277 0.447 0 0 0 0 0 0v0 3h1v-1h1v1h1v-3c0-0 0-0 0-0 0-0.195-0.111-0.363-0.274-0.446l-0.003-0.001zM8 16v-0.691l0.5-0.25 0.5 0.25v0.691z"></path>
<path fill="#353688" style="fill: var(--color10, #353688)" d="M21.724 14.553l-1-0.5c-0.065-0.033-0.142-0.053-0.224-0.053s-0.158 0.019-0.226 0.054l0.003-0.001-1 0.5c-0.165 0.084-0.276 0.253-0.276 0.447 0 0 0 0 0 0v0 3h1v-1h1v1h1v-3c0-0 0-0 0-0 0-0.195-0.111-0.363-0.274-0.446l-0.003-0.001zM20 16v-0.691l0.5-0.25 0.5 0.25v0.691z"></path>
<path fill="#353688" style="fill: var(--color10, #353688)" d="M28.724 14.553l-1-0.5c-0.065-0.033-0.142-0.053-0.224-0.053s-0.158 0.019-0.226 0.054l0.003-0.001-1 0.5c-0.165 0.084-0.276 0.253-0.276 0.447 0 0 0 0 0 0v0 3h1v-1h1v1h1v-3c0-0 0-0 0-0 0-0.195-0.111-0.363-0.274-0.446l-0.003-0.001zM27 16v-0.691l0.5-0.25 0.5 0.25v0.691z"></path>
<path fill="#353688" style="fill: var(--color10, #353688)" d="M11 15h1v3h1v-3h1v-1h-3z"></path>
<path fill="#353688" style="fill: var(--color10, #353688)" d="M15 15h1v3h1v-3h1v-1h-3z"></path>
<path fill="#353688" style="fill: var(--color10, #353688)" d="M24.552 13.777l-0.552 1.105-0.552-1.105-0.895 0.447 0.948 1.894v1.882h1v-1.882l0.948-1.895z"></path>
<path fill="#2d75bb" style="fill: var(--color7, #2d75bb)" d="M14 18.5h1v1h-1z"></path>
<path fill="#2d75bb" style="fill: var(--color7, #2d75bb)" d="M5 18h1v1h-1z"></path>
<path fill="#2d75bb" style="fill: var(--color7, #2d75bb)" d="M24.5 19h1v1h-1z"></path>
</symbol>
<symbol id="icon-pattaya" viewBox="0 0 32 32">
<title>pattaya</title>
<path fill="#32b1cc" style="fill: var(--color1, #32b1cc)" d="M7.5 9.5h1v3.5h-1z"></path>
<path fill="#cfdfe8" style="fill: var(--color2, #cfdfe8)" d="M17 3.5h6v9.5h-6z"></path>
<path fill="#aabece" style="fill: var(--color3, #aabece)" d="M11 1.5h6v11.5h-6z"></path>
<path fill="#394d5c" style="fill: var(--color4, #394d5c)" d="M12.5 3h1v1h-1z"></path>
<path fill="#394d5c" style="fill: var(--color4, #394d5c)" d="M14.5 3h1v1h-1z"></path>
<path fill="#394d5c" style="fill: var(--color4, #394d5c)" d="M12.5 5h1v1h-1z"></path>
<path fill="#394d5c" style="fill: var(--color4, #394d5c)" d="M14.5 5h1v1h-1z"></path>
<path fill="#394d5c" style="fill: var(--color4, #394d5c)" d="M12.5 7h1v1h-1z"></path>
<path fill="#394d5c" style="fill: var(--color4, #394d5c)" d="M14.5 7h1v1h-1z"></path>
<path fill="#394d5c" style="fill: var(--color4, #394d5c)" d="M18.5 5h1v1h-1z"></path>
<path fill="#394d5c" style="fill: var(--color4, #394d5c)" d="M20.5 5h1v1h-1z"></path>
<path fill="#394d5c" style="fill: var(--color4, #394d5c)" d="M18.5 7h1v1h-1z"></path>
<path fill="#394d5c" style="fill: var(--color4, #394d5c)" d="M20.5 7h1v1h-1z"></path>
<path fill="#394d5c" style="fill: var(--color4, #394d5c)" d="M18.5 9h1v1h-1z"></path>
<path fill="#394d5c" style="fill: var(--color4, #394d5c)" d="M20.5 9h1v1h-1z"></path>
<path fill="#394d5c" style="fill: var(--color4, #394d5c)" d="M12.5 9h1v1h-1z"></path>
<path fill="#394d5c" style="fill: var(--color4, #394d5c)" d="M14.5 9h1v1h-1z"></path>
<path fill="#aabece" style="fill: var(--color3, #aabece)" d="M23 7.5h4v5.5h-4z"></path>
<path fill="#394d5c" style="fill: var(--color4, #394d5c)" d="M24.5 9h1v1h-1z"></path>
<path fill="#32b1cc" style="fill: var(--color1, #32b1cc)" d="M24.5 5h1v2.5h-1z"></path>
<path fill="#fcf05a" style="fill: var(--color11, #fcf05a)" d="M9 9c0 0.552-0.448 1-1 1s-1-0.448-1-1c0-0.552 0.448-1 1-1s1 0.448 1 1z"></path>
<path fill="#87cee9" style="fill: var(--color12, #87cee9)" d="M1.5 21.5h29v9h-29z"></path>
<path fill="#ffd782" style="fill: var(--color13, #ffd782)" d="M10 27.5h-4l-1-2h6z"></path>
<path fill="#2d75bb" style="fill: var(--color7, #2d75bb)" d="M4 27h8v1h-8z"></path>
<path fill="#e97424" style="fill: var(--color14, #e97424)" d="M6 23.5h3v2h-3z"></path>
<path fill="#ffd782" style="fill: var(--color13, #ffd782)" d="M21.5 28.5h4l1-2h-6z"></path>
<path fill="#2d75bb" style="fill: var(--color7, #2d75bb)" d="M19.5 28h8v1h-8z"></path>
<path fill="#e97424" style="fill: var(--color14, #e97424)" d="M25.5 26.5h-3v-2h3z"></path>
<path fill="#2d75bb" style="fill: var(--color7, #2d75bb)" d="M12.5 23.5h5v1h-5z"></path>
<path fill="#2d75bb" style="fill: var(--color7, #2d75bb)" d="M15 25.5h4v1h-4z"></path>
<path fill="#2d75bb" style="fill: var(--color7, #2d75bb)" d="M14 28h3v1h-3z"></path>
<path fill="#2d75bb" style="fill: var(--color7, #2d75bb)" d="M27 23.5h2v1h-2z"></path>
<path fill="#eb8cb3" style="fill: var(--color9, #eb8cb3)" d="M1.5 21.5v-8.5l2.5-1 4 0.5 3-0.5 3.5 0.5 4.5-1h3.5l3 0.5h2.5l2.5-0.5v10z"></path>
<path fill="#7768e5" style="fill: var(--color6, #7768e5)" d="M5.5 14h-2c-0.276 0-0.5 0.224-0.5 0.5v0 3.5h1v-1h1.5c0.276 0 0.5-0.224 0.5-0.5v0-2c0-0.276-0.224-0.5-0.5-0.5v0zM5 16h-1v-1h1z"></path>
<path fill="#7768e5" style="fill: var(--color6, #7768e5)" d="M9.723 14.553l-1-0.5c-0.065-0.033-0.142-0.053-0.223-0.053s-0.158 0.019-0.226 0.054l0.003-0.001-1 0.5c-0.165 0.084-0.277 0.253-0.277 0.447 0 0 0 0 0 0v0 3h1v-1h1v1h1v-3c0-0 0-0 0-0 0-0.195-0.111-0.363-0.274-0.446l-0.003-0.001zM8 16v-0.691l0.5-0.25 0.5 0.25v0.691z"></path>
<path fill="#7768e5" style="fill: var(--color6, #7768e5)" d="M21.724 14.553l-1-0.5c-0.065-0.033-0.142-0.053-0.224-0.053s-0.158 0.019-0.226 0.054l0.003-0.001-1 0.5c-0.165 0.084-0.276 0.253-0.276 0.447 0 0 0 0 0 0v0 3h1v-1h1v1h1v-3c0-0 0-0 0-0 0-0.195-0.111-0.363-0.274-0.446l-0.003-0.001zM20 16v-0.691l0.5-0.25 0.5 0.25v0.691z"></path>
<path fill="#7768e5" style="fill: var(--color6, #7768e5)" d="M28.724 14.553l-1-0.5c-0.065-0.033-0.142-0.053-0.224-0.053s-0.158 0.019-0.226 0.054l0.003-0.001-1 0.5c-0.165 0.084-0.276 0.253-0.276 0.447 0 0 0 0 0 0v0 3h1v-1h1v1h1v-3c0-0 0-0 0-0 0-0.195-0.111-0.363-0.274-0.446l-0.003-0.001zM27 16v-0.691l0.5-0.25 0.5 0.25v0.691z"></path>
<path fill="#7768e5" style="fill: var(--color6, #7768e5)" d="M11 15h1v3h1v-3h1v-1h-3z"></path>
<path fill="#7768e5" style="fill: var(--color6, #7768e5)" d="M15 15h1v3h1v-3h1v-1h-3z"></path>
<path fill="#7768e5" style="fill: var(--color6, #7768e5)" d="M24.552 13.777l-0.552 1.105-0.552-1.105-0.895 0.447 0.948 1.894v1.882h1v-1.882l0.948-1.895z"></path>
<path fill="#2d75bb" style="fill: var(--color7, #2d75bb)" d="M14 18.5h1v1h-1z"></path>
<path fill="#2d75bb" style="fill: var(--color7, #2d75bb)" d="M5 18h1v1h-1z"></path>
<path fill="#2d75bb" style="fill: var(--color7, #2d75bb)" d="M24.5 19h1v1h-1z"></path>
</symbol>
<symbol id="icon-atlas" viewBox="0 0 32 32">
<title>atlas</title>
<path fill="#7768e5" style="fill: var(--color6, #7768e5)" d="M26.151 17.766l-0.51 0.014-0.021-0.276 0.083 0.035 0.2-0.021-0.021-0.254-0.55 0.007-0.152-0.199 0.008-0.105-0.71-0.64-0.172 0.138 1.012 1.239 0.144 0.048v0.068h-0.193l0.048 0.152 1.246 0.055z"></path>
<path fill="#7768e5" style="fill: var(--color6, #7768e5)" d="M26.949 17.118l0.085-0.056v-0.68l-0.085-0.036-0.041-0.212h-0.124l-0.080 0.215-0.095 0.085-0.721 0.39v0.386l0.24 0.317h0.607l0.077-0.196 0.136-0.124z"></path>
<path fill="#7768e5" style="fill: var(--color6, #7768e5)" d="M27.484 17.062l-0.364 0.142 0.005 0.082h-0.091v0.503h0.186l-0.027-0.321 0.145 0.052v0.227l0.152-0.013z"></path>
<path fill="#7768e5" style="fill: var(--color6, #7768e5)" d="M30.449 19.704l-0.371-0.317-0.027-0.605-0.245-0.419-0.22-0.011-0.089 0.761-0.421-0.032-0.117-0.070-0.014-0.302 0.223 0.046 0.187-0.184-0.399-0.24h-0.47l-0.337 0.478h-0.138v-0.152l-0.403 0.031-0.641 0.729-0.339 0.005-0.378 0.261-0.028 1.129-0.227 0.22v0.2l1.102-0.378 0.892-0.036 0.33 0.727 1.014 0.034 0.978-0.919 0.24-0.549z"></path>
<path fill="#7768e5" style="fill: var(--color6, #7768e5)" d="M28.45 22.105l0.359 0.038 0.289-0.16 0.005-0.218-0.316-0.034z"></path>
<path fill="#7768e5" style="fill: var(--color6, #7768e5)" d="M31.898 21.113l-0.15 0.030-0.005-0.337-0.274 0.017-0.035 0.527-0.241 0.164-0.448 0.062-0.715 0.51-0.123 0.099v0.17l0.376-0.058 0.908-0.557 0.257-0.169 0.274-0.121 0.276-0.156z"></path>
<path fill="#7768e5" style="fill: var(--color6, #7768e5)" d="M29.084 17.353l-0.231 0.007 0.017-0.241-0.22-0.13-0.313 0.313 0.21 0.258 0.454 0.065 0.256 0.134 0.007 0.125h-0.166l0.007 0.254 0.551-0.035 0.2-0.213 0.213-0.021v0.392h0.372v-0.158h-0.185l-0.036-0.478-0.887-0.403z"></path>
<path fill="#7768e5" style="fill: var(--color6, #7768e5)" d="M22.475 16.211l0.087 0.233 0.314-0.117 0.034-0.323-0.253-0.049z"></path>
<path fill="#7768e5" style="fill: var(--color6, #7768e5)" d="M18.8 18.937l-0.427-0.056v0.331l0.152 0.179-0.117 0.178-0.172 0.2v0.364l0.234 0.227 0.214-0.343 0.419-0.614 0.199-0.963h-0.254z"></path>
<path fill="#7768e5" style="fill: var(--color6, #7768e5)" d="M27.574 17.92h-0.14v0.074l0.109 0.034z"></path>
<path fill="#7768e5" style="fill: var(--color6, #7768e5)" d="M26.784 18.028h0.166v0.092h-0.166v-0.092z"></path>
<path fill="#7768e5" style="fill: var(--color6, #7768e5)" d="M27.187 18.119h0.103v-0.080l0.074-0.011v-0.079h-0.165l-0.067 0.079-0.098 0.091v0.080l0.152-0.015z"></path>
<path fill="#7768e5" style="fill: var(--color6, #7768e5)" d="M27.61 18.192h0.164v-0.085l0.117 0.013-0.015-0.146-0.189 0.029-0.016 0.095-0.211 0.023h-0.011v0.145h0.16z"></path>
<path fill="#7768e5" style="fill: var(--color6, #7768e5)" d="M2.168 11.010l0.034-0.217-0.223-0.034c0 0.013 0.017 0.252 0.034 0.252s0.155-0.001 0.155-0.001z"></path>
<path fill="#7768e5" style="fill: var(--color6, #7768e5)" d="M13.409 10.804l0.017 0.134-0.2 0.042-0.027 0.285h0.241l0.32-0.031 0.165-0.196-0.176-0.069-0.096-0.11-0.144-0.234-0.069-0.33-0.272 0.055-0.076 0.116v0.132l0.13 0.090z"></path>
<path fill="#7768e5" style="fill: var(--color6, #7768e5)" d="M13.179 10.914l0.014-0.179-0.159-0.068-0.223 0.051-0.166 0.265v0.172h0.193z"></path>
<path fill="#7768e5" style="fill: var(--color6, #7768e5)" d="M24.606 16.145l0.98 0.939 0.052-0.165-0.796-1.136 0.083-0.331 0.42 0.476 0.234 0.025 0.308-0.205-0.051-0.309-0.509-0.409-0.020-0.372 0.146-0.196 0.258 0.083-0.021 0.176 0.148 0.227 0.131-0.093-0.072-0.268 0.723-0.258 0.316-0.265-0.048-0.478-0.629-0.66-0.011-0.537h0.279l0.867 0.661 0.244-0.066-0.162-0.213-0.464-0.282 0.027-0.419 0.55 0.001 0.044-0.52-0.211-0.276 0.125-0.134 0.268 0.268 0.086-0.113-0.344-0.393-0.856-0.103-0.114-0.227 0.248-0.351 0.196 0.144 0.588 0.052 0.743-0.496 0.124 0.155-0.166 0.258v0.258l0.682 0.558 0.217-0.113-0.083-0.372-0.486-0.454 0.64-0.042v-0.186l0.31-0.062-0.238-0.164 0.011-0.126 0.651 0.105 0.124-0.105-0.877-0.372-3.201-0.165-0.299-0.152-0.475-0.070-0.358-0.012-0.323 0.327-0.136-0.011-0.431-0.32h-1.27l-0.589-0.351-1.18 0.074-0.895 0.401 0.007 0.465-0.277 0.083-0.062-0.465-0.103-0.162-0.31-0.076-0.072 0.279 0.093 0.227-1.102-0.072-0.525 0.244-0.080-0.23-0.131 0.034-0.096 0.254-0.276 0.215-0.672-0.019-0.030-0.148 0.702-0.031 0.144-0.124-0.847-0.393-1.033 0.031-0.578 0.296-0.217 0.387-0.382 0.15-0.161 0.175 0.037 0.204 0.197 0.027 0.119 0.297 0.339-0.137 0.056 0.397h-0.103l-0.28-0.042-0.309 0.052-0.299 0.423-0.429 0.067-0.062 0.366 0.181 0.043-0.052 0.236-0.426-0.085-0.39 0.085-0.083 0.217 0.068 0.456 0.229 0.107 0.384-0.002 0.26-0.023 0.080-0.207 0.405-0.527 0.266 0.055 0.263-0.238 0.049 0.186 0.647 0.436-0.079 0.106-0.292-0.015 0.112 0.159 0.179 0.040 0.21-0.088-0.004-0.253 0.093-0.047-0.075-0.080-0.431-0.24-0.113-0.32h0.359l0.114 0.113 0.309 0.266 0.013 0.321 0.32 0.341 0.119-0.467 0.222-0.121 0.042 0.382 0.217 0.238 0.654-0.011 0.193 0.145v0.341l-0.238 0.217h-0.661l-0.403-0.3-0.423 0.042v0.258h-0.135l-0.144-0.103-0.733-0.186v-0.475l-0.929 0.072-0.288 0.155h-0.369l-0.181-0.018-0.448 0.249v0.468l-0.916 0.661 0.076 0.282h0.186l-0.048 0.268-0.131 0.048-0.007 0.702 0.791 0.902h0.345l0.021-0.055h0.619l0.178-0.165h0.352l0.193 0.193 0.523 0.055-0.069 0.696 0.582 1.025-0.307 0.585 0.021 0.276 0.242 0.24v0.662l0.316 0.426v0.55h0.937l0.702-0.723 0.22-0.392 0.282-0.062v-0.33l0.186-0.221 0.392-0.537-0.083-0.819-0.172-0.304 0.772-0.738 0.851-1.217-0.165-0.076-0.884 0.186-0.227-0.113-0.929-1.751 0.065-0.076 0.921 1.118 0.024 0.348 0.213 0.213 0.433-0.028 0.906-0.655 0.284-0.186-0.006-0.227-0.302-0.040c0 0-1.060-0.5-1.060-0.521s0.007-0.429 0.007-0.429h0.234l0.035 0.296 0.491 0.282 0.562 0.027 1.218 0.199 0.286 0.18v0.279l-0.037 0.379 0.625 1.027 0.201 0.046 0.201-0.292 0.111-0.831 0.209-0.448 0.335-0.125 0.592 0.056 0.743 0.66v0.954h-0.001zM16.040 9.609l-0.41 0.251v0.165l0.233 0.109 0.015 0.222-0.327 0.488-0.568-0.005-0.036-0.119 0.356-0.18 0.003-0.674 0.604-0.421h0.131v0.164zM17.303 12.48l-0.535-0.022-0.16 0.022v-0.366l0.121-0.135 0.129-0.040 0.285-0.033 0.062-0.097 0.117 0.058 0.015 0.333 0.312 0.127 0.027 0.152h-0.372zM19.36 12.741l-0.093 0.089-0.216-0.017-0.042-0.065-0.341-0.024 0.024-0.11 0.18-0.155v-0.13l-0.345-0.252-0.014-0.32 0.070-0.158 0.278-0.024 0.238 0.099 0.011 0.166-0.337-0.019-0.017 0.154 0.423 0.282v0.207l0.183 0.134v0.144h-0.001z"></path>
<path fill="#7768e5" style="fill: var(--color6, #7768e5)" d="M8.544 11.8h-0.238v0.122h0.056c0 0 0.003 0.026 0.008 0.060l0.146-0.012 0.091-0.056 0.024-0.114 0.117-0.010 0.046-0.096-0.108-0.022-0.095 0.002-0.048 0.126z"></path>
<path fill="#7768e5" style="fill: var(--color6, #7768e5)" d="M7.972 12.016l0.172-0.015 0.018-0.12-0.103-0.081-0.078 0.096z"></path>
<path fill="#7768e5" style="fill: var(--color6, #7768e5)" d="M10.236 17.326l-0.729-0.007-0.578-0.219-0.027-0.413-0.193-0.338-0.523-0.007-0.303-0.474-0.268-0.131-0.014 0.144-0.489 0.029-0.179-0.249-0.509-0.103-0.419 0.485-0.661-0.111-0.048-0.745-0.482-0.083 0.193-0.365-0.056-0.21-0.633 0.423-0.399-0.048-0.143-0.311 0.087-0.321 0.22-0.405 0.506-0.256h0.978l-0.003 0.298 0.351 0.164-0.028-0.509 0.253-0.254 0.511-0.335 0.035-0.236 0.509-0.53 0.541-0.3-0.048-0.040 0.367-0.346 0.134 0.036 0.062 0.077 0.14-0.154 0.034-0.015-0.153-0.021-0.154-0.052v-0.15l0.083-0.067h0.181l0.083 0.036 0.072 0.144 0.088-0.013v-0.013l0.025 0.009 0.254-0.040 0.036-0.124 0.144 0.036v0.134l-0.134 0.093 0.019 0.148 0.46 0.142c0 0 0.001 0.002 0.001 0.005l0.105-0.009 0.007-0.199-0.366-0.164-0.021-0.096 0.303-0.103 0.013-0.289-0.316-0.193-0.021-0.488-0.433 0.213h-0.158l0.042-0.372-0.59-0.14-0.244 0.184v0.563l-0.439 0.14-0.176 0.366-0.191 0.031v-0.47l-0.413-0.057-0.207-0.134-0.083-0.305 0.739-0.432 0.362-0.11 0.036 0.243 0.201-0.011 0.015-0.122 0.211-0.030 0.003-0.042-0.091-0.038-0.021-0.129 0.259-0.021 0.156-0.163 0.009-0.012 0.002 0.001 0.048-0.049 0.544-0.069 0.24 0.205-0.631 0.335 0.802 0.189 0.104-0.268h0.351l0.124-0.234-0.248-0.062v-0.296l-0.778-0.344-0.537 0.062-0.303 0.158 0.021 0.386-0.317-0.048-0.049-0.213 0.303-0.276-0.551-0.028-0.158 0.048-0.069 0.186 0.207 0.035-0.042 0.207-0.351 0.021-0.055 0.138-0.509 0.013c0 0-0.014-0.289-0.034-0.289s0.399-0.007 0.399-0.007l0.303-0.296-0.166-0.083-0.22 0.213-0.366-0.021-0.22-0.303h-0.468l-0.489 0.365h0.448l0.041 0.131-0.117 0.11 0.496 0.014 0.076 0.179-0.558-0.021-0.027-0.138-0.351-0.076-0.186-0.103-0.826 0.007-0.255 0.248-0.172-0.014-0.193-0.11-0.572-0.172h-1.047l-0.605 0.413-0.406 0.062-0.186 0.144 0.289 0.043v0.115h-0.619l-0.242 0.172 0.309 0.262 0.847 0.007 0.117-0.124h0.709l0.254 0.227-0.013 0.351 0.213 0.199-0.179 0.127 0.042 0.465-0.64 0.778v0.729l0.344 0.166v0.655l0.33 0.563 0.268 0.042 0.034-0.193-0.317-0.489-0.062-0.475h0.186l0.079 0.489 0.458 0.668-0.119 0.216 0.291 0.445 0.723 0.179v-0.117l0.289 0.042-0.027 0.207 0.227 0.042 0.351 0.096 0.496 0.565 0.633 0.048 0.062 0.517-0.433 0.303-0.021 0.462-0.062 0.282 0.627 0.785 0.048 0.268c0 0 0.227 0.062 0.255 0.062s0.509 0.364 0.509 0.364v1.418l0.172 0.048-0.117 0.654 0.289 0.385-0.054 0.649 0.382 0.671 0.49 0.429 0.493 0.009 0.048-0.158-0.362-0.305 0.021-0.152 0.065-0.185 0.014-0.19-0.245-0.007-0.123-0.154 0.203-0.196 0.027-0.149-0.227-0.065 0.013-0.137 0.323-0.050 0.492-0.237 0.165-0.303 0.517-0.66-0.117-0.517 0.158-0.274 0.475 0.014 0.32-0.253 0.103-0.996 0.354-0.451 0.062-0.29-0.323-0.103-0.211-0.352zM6.495 12.237l-0.119 0.119h-0.264l0.042-0.18 0.124-0.011 0.026-0.062 0.191-0.026v0.16zM6.557 11.912l-0.124 0.080-0.154 0.028c0 0 0-0.248 0-0.274h0.279l-0.001 0.166zM6.791 11.721l0.127 0.079-0.101 0.084-0.1-0.084 0.074-0.079zM6.624 11.927h0.021l0.315 0.093v0.16h-0.264l-0.072-0.104v-0.15zM6.417 11.483l0.17 0.155-0.17 0.042v-0.197zM5.694 11.509l0.237-0.098h0.325v0.098h0.072v0.17h-0.495l-0.186-0.052 0.046-0.119zM5.648 11.953l0.191-0.207h0.274l-0.351 0.49-0.145-0.078 0.031-0.206zM5.395 10.786l0.196 0.046-0.068 0.264-0.211 0.067-0.134-0.274 0.217-0.103zM4.414 9.537v-0.015h0.181l0.015-0.062h0.296v0.129l-0.085 0.113h-0.408v-0.165zM4.703 9.939c0 0 0.181-0.031 0.196-0.031s0 0.18 0 0.18l-0.408 0.026-0.078-0.093 0.29-0.083z"></path>
</symbol>
<symbol id="icon-stars" viewBox="0 0 32 32">
<title>stars</title>
<path d="M22.714 9.238l-1.214-3.238-1.214 3.238-2.286 0.762 2.286 0.762 1.214 3.238 1.214-3.238 2.286-0.762-2.286-0.762zM20.714 21.238l-1.214-3.238-1.214 3.238-2.286 0.762 2.286 0.762 1.214 3.238 1.214-3.238 2.286-0.762-2.286-0.762zM13.459 13.486l-1.959-5.487-1.959 5.487-4.541 1.514 4.541 1.514 1.959 5.486 1.959-5.486 4.541-1.514-4.541-1.514z"></path>
</symbol>
<symbol id="icon-location" viewBox="0 0 32 32">
<title>location</title>
<path d="M16.002 17.746c3.309 0 6-2.692 6-6s-2.691-6-6-6c-3.309 0-6 2.691-6 6s2.691 6 6 6zM16.002 6.746c2.758 0 5 2.242 5 5s-2.242 5-5 5c-2.758 0-5-2.242-5-5s2.242-5 5-5zM16 0c-6.618 0-12 5.316-12 12.001 0 7 6.001 14.161 10.376 19.194 0.016 0.020 0.718 0.805 1.586 0.805 0.002 0 0.073 0 0.077 0 0.867 0 1.57-0.785 1.586-0.805 4.377-5.033 10.377-12.193 10.377-19.194 0-6.685-5.383-12.001-12.002-12.001zM16.117 29.883c-0.021 0.020-0.082 0.064-0.135 0.098-0.010-0.027-0.084-0.086-0.129-0.133-3.665-4.217-9.853-11.334-9.853-17.847 0-5.514 4.487-10.001 10-10.001 5.516 0 10.002 4.487 10.002 10.002 0 6.512-6.188 13.629-9.885 17.881z"></path>
</symbol>
</defs>
</svg>
