<!-- Generated by IcoMoon.io -->
<svg version="1.1" xmlns="http://www.w3.org/2000/svg" width="32" height="32" viewBox="0 0 32 32">
<title>atlas</title>
<path fill="#7768e5" d="M26.151 17.766l-0.51 0.014-0.021-0.276 0.083 0.035 0.2-0.021-0.021-0.254-0.55 0.007-0.152-0.199 0.008-0.105-0.71-0.64-0.172 0.138 1.012 1.239 0.144 0.048v0.068h-0.193l0.048 0.152 1.246 0.055z"></path>
<path fill="#7768e5" d="M26.949 17.118l0.085-0.056v-0.68l-0.085-0.036-0.041-0.212h-0.124l-0.080 0.215-0.095 0.085-0.721 0.39v0.386l0.24 0.317h0.607l0.077-0.196 0.136-0.124z"></path>
<path fill="#7768e5" d="M27.484 17.062l-0.364 0.142 0.005 0.082h-0.091v0.503h0.186l-0.027-0.321 0.145 0.052v0.227l0.152-0.013z"></path>
<path fill="#7768e5" d="M30.449 19.704l-0.371-0.317-0.027-0.605-0.245-0.419-0.22-0.011-0.089 0.761-0.421-0.032-0.117-0.070-0.014-0.302 0.223 0.046 0.187-0.184-0.399-0.24h-0.47l-0.337 0.478h-0.138v-0.152l-0.403 0.031-0.641 0.729-0.339 0.005-0.378 0.261-0.028 1.129-0.227 0.22v0.2l1.102-0.378 0.892-0.036 0.33 0.727 1.014 0.034 0.978-0.919 0.24-0.549z"></path>
<path fill="#7768e5" d="M28.45 22.105l0.359 0.038 0.289-0.16 0.005-0.218-0.316-0.034z"></path>
<path fill="#7768e5" d="M31.898 21.113l-0.15 0.030-0.005-0.337-0.274 0.017-0.035 0.527-0.241 0.164-0.448 0.062-0.715 0.51-0.123 0.099v0.17l0.376-0.058 0.908-0.557 0.257-0.169 0.274-0.121 0.276-0.156z"></path>
<path fill="#7768e5" d="M29.084 17.353l-0.231 0.007 0.017-0.241-0.22-0.13-0.313 0.313 0.21 0.258 0.454 0.065 0.256 0.134 0.007 0.125h-0.166l0.007 0.254 0.551-0.035 0.2-0.213 0.213-0.021v0.392h0.372v-0.158h-0.185l-0.036-0.478-0.887-0.403z"></path>
<path fill="#7768e5" d="M22.475 16.211l0.087 0.233 0.314-0.117 0.034-0.323-0.253-0.049z"></path>
<path fill="#7768e5" d="M18.8 18.937l-0.427-0.056v0.331l0.152 0.179-0.117 0.178-0.172 0.2v0.364l0.234 0.227 0.214-0.343 0.419-0.614 0.199-0.963h-0.254z"></path>
<path fill="#7768e5" d="M27.574 17.92h-0.14v0.074l0.109 0.034z"></path>
<path fill="#7768e5" d="M26.784 18.028h0.166v0.092h-0.166v-0.092z"></path>
<path fill="#7768e5" d="M27.187 18.119h0.103v-0.080l0.074-0.011v-0.079h-0.165l-0.067 0.079-0.098 0.091v0.080l0.152-0.015z"></path>
<path fill="#7768e5" d="M27.61 18.192h0.164v-0.085l0.117 0.013-0.015-0.146-0.189 0.029-0.016 0.095-0.211 0.023h-0.011v0.145h0.16z"></path>
<path fill="#7768e5" d="M2.168 11.010l0.034-0.217-0.223-0.034c0 0.013 0.017 0.252 0.034 0.252s0.155-0.001 0.155-0.001z"></path>
<path fill="#7768e5" d="M13.409 10.804l0.017 0.134-0.2 0.042-0.027 0.285h0.241l0.32-0.031 0.165-0.196-0.176-0.069-0.096-0.11-0.144-0.234-0.069-0.33-0.272 0.055-0.076 0.116v0.132l0.13 0.090z"></path>
<path fill="#7768e5" d="M13.179 10.914l0.014-0.179-0.159-0.068-0.223 0.051-0.166 0.265v0.172h0.193z"></path>
<path fill="#7768e5" d="M24.606 16.145l0.98 0.939 0.052-0.165-0.796-1.136 0.083-0.331 0.42 0.476 0.234 0.025 0.308-0.205-0.051-0.309-0.509-0.409-0.020-0.372 0.146-0.196 0.258 0.083-0.021 0.176 0.148 0.227 0.131-0.093-0.072-0.268 0.723-0.258 0.316-0.265-0.048-0.478-0.629-0.66-0.011-0.537h0.279l0.867 0.661 0.244-0.066-0.162-0.213-0.464-0.282 0.027-0.419 0.55 0.001 0.044-0.52-0.211-0.276 0.125-0.134 0.268 0.268 0.086-0.113-0.344-0.393-0.856-0.103-0.114-0.227 0.248-0.351 0.196 0.144 0.588 0.052 0.743-0.496 0.124 0.155-0.166 0.258v0.258l0.682 0.558 0.217-0.113-0.083-0.372-0.486-0.454 0.64-0.042v-0.186l0.31-0.062-0.238-0.164 0.011-0.126 0.651 0.105 0.124-0.105-0.877-0.372-3.201-0.165-0.299-0.152-0.475-0.070-0.358-0.012-0.323 0.327-0.136-0.011-0.431-0.32h-1.27l-0.589-0.351-1.18 0.074-0.895 0.401 0.007 0.465-0.277 0.083-0.062-0.465-0.103-0.162-0.31-0.076-0.072 0.279 0.093 0.227-1.102-0.072-0.525 0.244-0.080-0.23-0.131 0.034-0.096 0.254-0.276 0.215-0.672-0.019-0.030-0.148 0.702-0.031 0.144-0.124-0.847-0.393-1.033 0.031-0.578 0.296-0.217 0.387-0.382 0.15-0.161 0.175 0.037 0.204 0.197 0.027 0.119 0.297 0.339-0.137 0.056 0.397h-0.103l-0.28-0.042-0.309 0.052-0.299 0.423-0.429 0.067-0.062 0.366 0.181 0.043-0.052 0.236-0.426-0.085-0.39 0.085-0.083 0.217 0.068 0.456 0.229 0.107 0.384-0.002 0.26-0.023 0.080-0.207 0.405-0.527 0.266 0.055 0.263-0.238 0.049 0.186 0.647 0.436-0.079 0.106-0.292-0.015 0.112 0.159 0.179 0.040 0.21-0.088-0.004-0.253 0.093-0.047-0.075-0.080-0.431-0.24-0.113-0.32h0.359l0.114 0.113 0.309 0.266 0.013 0.321 0.32 0.341 0.119-0.467 0.222-0.121 0.042 0.382 0.217 0.238 0.654-0.011 0.193 0.145v0.341l-0.238 0.217h-0.661l-0.403-0.3-0.423 0.042v0.258h-0.135l-0.144-0.103-0.733-0.186v-0.475l-0.929 0.072-0.288 0.155h-0.369l-0.181-0.018-0.448 0.249v0.468l-0.916 0.661 0.076 0.282h0.186l-0.048 0.268-0.131 0.048-0.007 0.702 0.791 0.902h0.345l0.021-0.055h0.619l0.178-0.165h0.352l0.193 0.193 0.523 0.055-0.069 0.696 0.582 1.025-0.307 0.585 0.021 0.276 0.242 0.24v0.662l0.316 0.426v0.55h0.937l0.702-0.723 0.22-0.392 0.282-0.062v-0.33l0.186-0.221 0.392-0.537-0.083-0.819-0.172-0.304 0.772-0.738 0.851-1.217-0.165-0.076-0.884 0.186-0.227-0.113-0.929-1.751 0.065-0.076 0.921 1.118 0.024 0.348 0.213 0.213 0.433-0.028 0.906-0.655 0.284-0.186-0.006-0.227-0.302-0.040c0 0-1.060-0.5-1.060-0.521s0.007-0.429 0.007-0.429h0.234l0.035 0.296 0.491 0.282 0.562 0.027 1.218 0.199 0.286 0.18v0.279l-0.037 0.379 0.625 1.027 0.201 0.046 0.201-0.292 0.111-0.831 0.209-0.448 0.335-0.125 0.592 0.056 0.743 0.66v0.954h-0.001zM16.040 9.609l-0.41 0.251v0.165l0.233 0.109 0.015 0.222-0.327 0.488-0.568-0.005-0.036-0.119 0.356-0.18 0.003-0.674 0.604-0.421h0.131v0.164zM17.303 12.48l-0.535-0.022-0.16 0.022v-0.366l0.121-0.135 0.129-0.040 0.285-0.033 0.062-0.097 0.117 0.058 0.015 0.333 0.312 0.127 0.027 0.152h-0.372zM19.36 12.741l-0.093 0.089-0.216-0.017-0.042-0.065-0.341-0.024 0.024-0.11 0.18-0.155v-0.13l-0.345-0.252-0.014-0.32 0.070-0.158 0.278-0.024 0.238 0.099 0.011 0.166-0.337-0.019-0.017 0.154 0.423 0.282v0.207l0.183 0.134v0.144h-0.001z"></path>
<path fill="#7768e5" d="M8.544 11.8h-0.238v0.122h0.056c0 0 0.003 0.026 0.008 0.060l0.146-0.012 0.091-0.056 0.024-0.114 0.117-0.010 0.046-0.096-0.108-0.022-0.095 0.002-0.048 0.126z"></path>
<path fill="#7768e5" d="M7.972 12.016l0.172-0.015 0.018-0.12-0.103-0.081-0.078 0.096z"></path>
<path fill="#7768e5" d="M10.236 17.326l-0.729-0.007-0.578-0.219-0.027-0.413-0.193-0.338-0.523-0.007-0.303-0.474-0.268-0.131-0.014 0.144-0.489 0.029-0.179-0.249-0.509-0.103-0.419 0.485-0.661-0.111-0.048-0.745-0.482-0.083 0.193-0.365-0.056-0.21-0.633 0.423-0.399-0.048-0.143-0.311 0.087-0.321 0.22-0.405 0.506-0.256h0.978l-0.003 0.298 0.351 0.164-0.028-0.509 0.253-0.254 0.511-0.335 0.035-0.236 0.509-0.53 0.541-0.3-0.048-0.040 0.367-0.346 0.134 0.036 0.062 0.077 0.14-0.154 0.034-0.015-0.153-0.021-0.154-0.052v-0.15l0.083-0.067h0.181l0.083 0.036 0.072 0.144 0.088-0.013v-0.013l0.025 0.009 0.254-0.040 0.036-0.124 0.144 0.036v0.134l-0.134 0.093 0.019 0.148 0.46 0.142c0 0 0.001 0.002 0.001 0.005l0.105-0.009 0.007-0.199-0.366-0.164-0.021-0.096 0.303-0.103 0.013-0.289-0.316-0.193-0.021-0.488-0.433 0.213h-0.158l0.042-0.372-0.59-0.14-0.244 0.184v0.563l-0.439 0.14-0.176 0.366-0.191 0.031v-0.47l-0.413-0.057-0.207-0.134-0.083-0.305 0.739-0.432 0.362-0.11 0.036 0.243 0.201-0.011 0.015-0.122 0.211-0.030 0.003-0.042-0.091-0.038-0.021-0.129 0.259-0.021 0.156-0.163 0.009-0.012 0.002 0.001 0.048-0.049 0.544-0.069 0.24 0.205-0.631 0.335 0.802 0.189 0.104-0.268h0.351l0.124-0.234-0.248-0.062v-0.296l-0.778-0.344-0.537 0.062-0.303 0.158 0.021 0.386-0.317-0.048-0.049-0.213 0.303-0.276-0.551-0.028-0.158 0.048-0.069 0.186 0.207 0.035-0.042 0.207-0.351 0.021-0.055 0.138-0.509 0.013c0 0-0.014-0.289-0.034-0.289s0.399-0.007 0.399-0.007l0.303-0.296-0.166-0.083-0.22 0.213-0.366-0.021-0.22-0.303h-0.468l-0.489 0.365h0.448l0.041 0.131-0.117 0.11 0.496 0.014 0.076 0.179-0.558-0.021-0.027-0.138-0.351-0.076-0.186-0.103-0.826 0.007-0.255 0.248-0.172-0.014-0.193-0.11-0.572-0.172h-1.047l-0.605 0.413-0.406 0.062-0.186 0.144 0.289 0.043v0.115h-0.619l-0.242 0.172 0.309 0.262 0.847 0.007 0.117-0.124h0.709l0.254 0.227-0.013 0.351 0.213 0.199-0.179 0.127 0.042 0.465-0.64 0.778v0.729l0.344 0.166v0.655l0.33 0.563 0.268 0.042 0.034-0.193-0.317-0.489-0.062-0.475h0.186l0.079 0.489 0.458 0.668-0.119 0.216 0.291 0.445 0.723 0.179v-0.117l0.289 0.042-0.027 0.207 0.227 0.042 0.351 0.096 0.496 0.565 0.633 0.048 0.062 0.517-0.433 0.303-0.021 0.462-0.062 0.282 0.627 0.785 0.048 0.268c0 0 0.227 0.062 0.255 0.062s0.509 0.364 0.509 0.364v1.418l0.172 0.048-0.117 0.654 0.289 0.385-0.054 0.649 0.382 0.671 0.49 0.429 0.493 0.009 0.048-0.158-0.362-0.305 0.021-0.152 0.065-0.185 0.014-0.19-0.245-0.007-0.123-0.154 0.203-0.196 0.027-0.149-0.227-0.065 0.013-0.137 0.323-0.050 0.492-0.237 0.165-0.303 0.517-0.66-0.117-0.517 0.158-0.274 0.475 0.014 0.32-0.253 0.103-0.996 0.354-0.451 0.062-0.29-0.323-0.103-0.211-0.352zM6.495 12.237l-0.119 0.119h-0.264l0.042-0.18 0.124-0.011 0.026-0.062 0.191-0.026v0.16zM6.557 11.912l-0.124 0.080-0.154 0.028c0 0 0-0.248 0-0.274h0.279l-0.001 0.166zM6.791 11.721l0.127 0.079-0.101 0.084-0.1-0.084 0.074-0.079zM6.624 11.927h0.021l0.315 0.093v0.16h-0.264l-0.072-0.104v-0.15zM6.417 11.483l0.17 0.155-0.17 0.042v-0.197zM5.694 11.509l0.237-0.098h0.325v0.098h0.072v0.17h-0.495l-0.186-0.052 0.046-0.119zM5.648 11.953l0.191-0.207h0.274l-0.351 0.49-0.145-0.078 0.031-0.206zM5.395 10.786l0.196 0.046-0.068 0.264-0.211 0.067-0.134-0.274 0.217-0.103zM4.414 9.537v-0.015h0.181l0.015-0.062h0.296v0.129l-0.085 0.113h-0.408v-0.165zM4.703 9.939c0 0 0.181-0.031 0.196-0.031s0 0.18 0 0.18l-0.408 0.026-0.078-0.093 0.29-0.083z"></path>
</svg>
