<!-- Generated by IcoMoon.io -->
<svg version="1.1" xmlns="http://www.w3.org/2000/svg" width="32" height="32" viewBox="0 0 32 32">
<title>pattaya</title>
<path fill="#32b1cc" d="M7.5 9.5h1v3.5h-1z"></path>
<path fill="#cfdfe8" d="M17 3.5h6v9.5h-6z"></path>
<path fill="#aabece" d="M11 1.5h6v11.5h-6z"></path>
<path fill="#394d5c" d="M12.5 3h1v1h-1z"></path>
<path fill="#394d5c" d="M14.5 3h1v1h-1z"></path>
<path fill="#394d5c" d="M12.5 5h1v1h-1z"></path>
<path fill="#394d5c" d="M14.5 5h1v1h-1z"></path>
<path fill="#394d5c" d="M12.5 7h1v1h-1z"></path>
<path fill="#394d5c" d="M14.5 7h1v1h-1z"></path>
<path fill="#394d5c" d="M18.5 5h1v1h-1z"></path>
<path fill="#394d5c" d="M20.5 5h1v1h-1z"></path>
<path fill="#394d5c" d="M18.5 7h1v1h-1z"></path>
<path fill="#394d5c" d="M20.5 7h1v1h-1z"></path>
<path fill="#394d5c" d="M18.5 9h1v1h-1z"></path>
<path fill="#394d5c" d="M20.5 9h1v1h-1z"></path>
<path fill="#394d5c" d="M12.5 9h1v1h-1z"></path>
<path fill="#394d5c" d="M14.5 9h1v1h-1z"></path>
<path fill="#aabece" d="M23 7.5h4v5.5h-4z"></path>
<path fill="#394d5c" d="M24.5 9h1v1h-1z"></path>
<path fill="#32b1cc" d="M24.5 5h1v2.5h-1z"></path>
<path fill="#fcf05a" d="M9 9c0 0.552-0.448 1-1 1s-1-0.448-1-1c0-0.552 0.448-1 1-1s1 0.448 1 1z"></path>
<path fill="#87cee9" d="M1.5 21.5h29v9h-29z"></path>
<path fill="#ffd782" d="M10 27.5h-4l-1-2h6z"></path>
<path fill="#2d75bb" d="M4 27h8v1h-8z"></path>
<path fill="#e97424" d="M6 23.5h3v2h-3z"></path>
<path fill="#ffd782" d="M21.5 28.5h4l1-2h-6z"></path>
<path fill="#2d75bb" d="M19.5 28h8v1h-8z"></path>
<path fill="#e97424" d="M25.5 26.5h-3v-2h3z"></path>
<path fill="#2d75bb" d="M12.5 23.5h5v1h-5z"></path>
<path fill="#2d75bb" d="M15 25.5h4v1h-4z"></path>
<path fill="#2d75bb" d="M14 28h3v1h-3z"></path>
<path fill="#2d75bb" d="M27 23.5h2v1h-2z"></path>
<path fill="#eb8cb3" d="M1.5 21.5v-8.5l2.5-1 4 0.5 3-0.5 3.5 0.5 4.5-1h3.5l3 0.5h2.5l2.5-0.5v10z"></path>
<path fill="#7768e5" d="M5.5 14h-2c-0.276 0-0.5 0.224-0.5 0.5v0 3.5h1v-1h1.5c0.276 0 0.5-0.224 0.5-0.5v0-2c0-0.276-0.224-0.5-0.5-0.5v0zM5 16h-1v-1h1z"></path>
<path fill="#7768e5" d="M9.723 14.553l-1-0.5c-0.065-0.033-0.142-0.053-0.223-0.053s-0.158 0.019-0.226 0.054l0.003-0.001-1 0.5c-0.165 0.084-0.277 0.253-0.277 0.447 0 0 0 0 0 0v0 3h1v-1h1v1h1v-3c0-0 0-0 0-0 0-0.195-0.111-0.363-0.274-0.446l-0.003-0.001zM8 16v-0.691l0.5-0.25 0.5 0.25v0.691z"></path>
<path fill="#7768e5" d="M21.724 14.553l-1-0.5c-0.065-0.033-0.142-0.053-0.224-0.053s-0.158 0.019-0.226 0.054l0.003-0.001-1 0.5c-0.165 0.084-0.276 0.253-0.276 0.447 0 0 0 0 0 0v0 3h1v-1h1v1h1v-3c0-0 0-0 0-0 0-0.195-0.111-0.363-0.274-0.446l-0.003-0.001zM20 16v-0.691l0.5-0.25 0.5 0.25v0.691z"></path>
<path fill="#7768e5" d="M28.724 14.553l-1-0.5c-0.065-0.033-0.142-0.053-0.224-0.053s-0.158 0.019-0.226 0.054l0.003-0.001-1 0.5c-0.165 0.084-0.276 0.253-0.276 0.447 0 0 0 0 0 0v0 3h1v-1h1v1h1v-3c0-0 0-0 0-0 0-0.195-0.111-0.363-0.274-0.446l-0.003-0.001zM27 16v-0.691l0.5-0.25 0.5 0.25v0.691z"></path>
<path fill="#7768e5" d="M11 15h1v3h1v-3h1v-1h-3z"></path>
<path fill="#7768e5" d="M15 15h1v3h1v-3h1v-1h-3z"></path>
<path fill="#7768e5" d="M24.552 13.777l-0.552 1.105-0.552-1.105-0.895 0.447 0.948 1.894v1.882h1v-1.882l0.948-1.895z"></path>
<path fill="#2d75bb" d="M14 18.5h1v1h-1z"></path>
<path fill="#2d75bb" d="M5 18h1v1h-1z"></path>
<path fill="#2d75bb" d="M24.5 19h1v1h-1z"></path>
</svg>
